<svg width="24" height="25" viewBox="0 0 24 25" fill="none" xmlns="http://www.w3.org/2000/svg">
<path d="M11.9984 2.72266C14.7149 2.72266 15.0539 2.73265 16.1197 2.78262C17.1845 2.83259 17.9094 2.99949 18.5473 3.24735C19.2072 3.5012 19.7631 3.845 20.319 4.39967C20.8274 4.89928 21.2208 5.50362 21.4718 6.17064C21.7188 6.80726 21.8867 7.53284 21.9367 8.59721C21.9837 9.66259 21.9967 10.0014 21.9967 12.7168C21.9967 15.4322 21.9867 15.771 21.9367 16.8364C21.8867 17.9008 21.7188 18.6253 21.4718 19.263C21.2215 19.9304 20.828 20.5348 20.319 21.0339C19.819 21.542 19.2145 21.9352 18.5473 22.1863C17.9104 22.4331 17.1845 22.601 16.1197 22.651C15.0539 22.698 14.7149 22.7109 11.9984 22.7109C9.2818 22.7109 8.94286 22.701 7.87703 22.651C6.81221 22.601 6.08733 22.4331 5.44943 22.1863C4.78187 21.9359 4.17717 21.5426 3.67772 21.0339C3.16921 20.5344 2.7758 19.93 2.52491 19.263C2.27695 18.6263 2.10998 17.9008 2.05999 16.8364C2.013 15.771 2 15.4322 2 12.7168C2 10.0014 2.01 9.66259 2.05999 8.59721C2.10998 7.53184 2.27695 6.80826 2.52491 6.17064C2.77511 5.50321 3.16861 4.8987 3.67772 4.39967C4.17731 3.8912 4.78197 3.49793 5.44943 3.24735C6.08733 2.99949 6.81121 2.83259 7.87703 2.78262C8.94286 2.73565 9.2818 2.72266 11.9984 2.72266ZM11.9984 7.71973C10.6725 7.71973 9.40093 8.2462 8.4634 9.18334C7.52587 10.1205 6.99918 11.3915 6.99918 12.7168C6.99918 14.0421 7.52587 15.3131 8.4634 16.2503C9.40093 17.1874 10.6725 17.7139 11.9984 17.7139C13.3242 17.7139 14.5958 17.1874 15.5333 16.2503C16.4708 15.3131 16.9975 14.0421 16.9975 12.7168C16.9975 11.3915 16.4708 10.1205 15.5333 9.18334C14.5958 8.2462 13.3242 7.71973 11.9984 7.71973ZM18.4973 7.46988C18.4973 7.13855 18.3656 6.82079 18.1312 6.58651C17.8968 6.35223 17.579 6.22061 17.2475 6.22061C16.916 6.22061 16.5981 6.35223 16.3638 6.58651C16.1294 6.82079 15.9977 7.13855 15.9977 7.46988C15.9977 7.8012 16.1294 8.11896 16.3638 8.35324C16.5981 8.58752 16.916 8.71914 17.2475 8.71914C17.579 8.71914 17.8968 8.58752 18.1312 8.35324C18.3656 8.11896 18.4973 7.8012 18.4973 7.46988ZM11.9984 9.71856C12.7939 9.71856 13.5568 10.0344 14.1193 10.5967C14.6818 11.159 14.9979 11.9216 14.9979 12.7168C14.9979 13.512 14.6818 14.2746 14.1193 14.8369C13.5568 15.3992 12.7939 15.715 11.9984 15.715C11.2028 15.715 10.4399 15.3992 9.87738 14.8369C9.31487 14.2746 8.99885 13.512 8.99885 12.7168C8.99885 11.9216 9.31487 11.159 9.87738 10.5967C10.4399 10.0344 11.2028 9.71856 11.9984 9.71856Z" fill="#1C314E"/>
</svg>
