<svg width="95" height="74" viewBox="0 0 95 74" fill="none" xmlns="http://www.w3.org/2000/svg">
<path d="M76.1914 30.1749L65.3592 19.1876L47.1386 0.707031L0.751953 46.8295C7.0985 44.8311 13.778 43.3255 20.7056 42.3635L47.5049 15.5647L93.6588 47.8927L78.2684 32.2818L76.1914 30.1751V30.1749Z" fill="#0C1D32"/>
<path d="M40.4839 41.1451C53.5717 41.3317 66.0418 43.435 77.4453 47.0934C61.9637 37.2261 43.2353 31.4502 23.0552 31.4502C20.6739 31.4502 18.3137 31.534 15.9756 31.692L0.751953 46.8289C12.9625 42.9844 26.397 40.9441 40.4838 41.1451H40.4839Z" fill="#F19817"/>
<path d="M7.10181 56.5578C7.68758 56.3788 8.15955 56.0534 8.51741 55.614C8.8591 55.1747 9.03808 54.6215 9.03808 53.9544C9.03808 53.3849 8.89164 52.8804 8.61503 52.4411C8.32215 52.0017 7.8991 51.6438 7.34588 51.3997C6.77639 51.1556 6.10927 51.0255 5.34441 51.0255H0.658203V62.3831H5.55594C6.32068 62.3831 6.9878 62.2529 7.55741 61.9926C8.1269 61.7322 8.54995 61.3743 8.8591 60.9024C9.15198 60.4468 9.29853 59.9099 9.29853 59.3078C9.29853 58.6407 9.08701 58.0387 8.68012 57.5179C8.27334 56.9972 7.73639 56.6718 7.1017 56.5579L7.10181 56.5578ZM2.93628 52.8641H5.0191C5.55605 52.8641 5.9791 52.9943 6.27198 53.2383C6.56486 53.4824 6.7113 53.8404 6.7113 54.2961C6.7113 54.7517 6.56486 55.0934 6.27198 55.3374C5.9791 55.5815 5.55605 55.7117 5.0191 55.7117H2.93628V52.8641ZM5.23063 60.528H2.93628V57.469H5.18181C5.73503 57.469 6.17436 57.5991 6.49978 57.8757C6.8252 58.1523 6.98791 58.5429 6.98791 59.031C6.98791 59.5029 6.84147 59.8771 6.53232 60.1374C6.22317 60.3978 5.78385 60.5279 5.23063 60.5279V60.528ZM20.1842 62.383L17.4668 57.7781C18.3291 57.5503 18.9637 57.1273 19.403 56.5252C19.8424 55.9232 20.054 55.2561 20.054 54.5075C20.054 53.8566 19.9075 53.2709 19.5983 52.7338C19.2891 52.2131 18.8173 51.7901 18.199 51.4809C17.5807 51.1718 16.8322 51.0253 15.9534 51.0253H11.6903V62.383H13.9684V57.9571H15.0423L17.5481 62.383H20.1842ZM13.9684 52.9128H15.8721C16.4904 52.9128 16.946 53.0594 17.2551 53.336C17.5643 53.6288 17.7107 54.0356 17.7107 54.5563C17.7107 55.0933 17.5643 55.5 17.2551 55.7929C16.946 56.1021 16.4904 56.2485 15.8721 56.2485H13.9684V52.9127V52.9128ZM22.6898 51.0253V62.383H24.9679V51.0253H22.6898ZM38.3107 54.4424C37.9527 53.3197 37.3019 52.4409 36.3582 51.8064C35.4143 51.1881 34.3079 50.8789 33.0225 50.8789C31.9322 50.8789 30.9559 51.123 30.0773 51.6111C29.1824 52.1155 28.499 52.7989 27.9945 53.6777C27.49 54.5726 27.2297 55.5651 27.2297 56.6879C27.2297 57.8106 27.49 58.8033 27.9945 59.6819C28.4989 60.5606 29.1822 61.244 30.0773 61.7321C30.9559 62.2365 31.9485 62.4806 33.0387 62.4806C34.015 62.4806 34.8938 62.2691 35.6911 61.8623C36.4721 61.4555 37.1068 60.9186 37.6112 60.2514C38.1156 59.5843 38.441 58.852 38.5874 58.0547V56.0696H32.4367V57.8107H36.3419C36.1629 58.6405 35.805 59.2751 35.2516 59.7306C34.6984 60.2025 33.9825 60.4303 33.12 60.4303C32.4203 60.4303 31.802 60.2839 31.2651 59.9747C30.7281 59.6656 30.3213 59.2425 30.0285 58.6729C29.7193 58.1034 29.5729 57.4526 29.5729 56.6878C29.5729 55.9556 29.7193 55.3048 30.0122 54.7353C30.3051 54.1658 30.7119 53.7427 31.2325 53.4336C31.7532 53.1244 32.3552 52.9779 33.0225 52.9779C33.6245 52.9779 34.1614 53.1082 34.617 53.3522C35.0726 53.5963 35.4306 53.9705 35.6909 54.4424H38.3107ZM48.5617 62.383H50.9699L46.8857 51.0091H44.2334L40.1492 62.383H42.5411L43.2896 60.2189H47.8131L48.5616 62.383H48.5617ZM43.908 58.3964L45.5514 53.6451L47.1949 58.3964H43.908ZM57.0389 51.0253H53.0687V62.383H57.0389C58.2267 62.383 59.2845 62.1552 60.1957 61.6833C61.0906 61.2114 61.7904 60.5606 62.2948 59.6982C62.7829 58.8521 63.027 57.8596 63.027 56.7205C63.027 55.5815 62.7829 54.5727 62.2948 53.7102C61.7904 52.8477 61.0907 52.1969 60.1957 51.725C59.2845 51.2531 58.2269 51.0253 57.0389 51.0253ZM56.9576 60.4467H55.3467V52.9455H56.9576C58.1454 52.9455 59.073 53.271 59.7238 53.9381C60.3746 54.6052 60.7001 55.5327 60.7001 56.7206C60.7001 57.9084 60.3746 58.8197 59.7238 59.4705C59.073 60.1214 58.1454 60.4468 56.9576 60.4468V60.4467ZM73.0177 62.383H75.4259L71.3418 51.0091H68.6894L64.6053 62.383H66.9971L67.7456 60.2189H72.2691L73.0176 62.383H73.0177ZM68.364 58.3964L70.0074 53.6451L71.6509 58.3964H68.364Z" fill="#0C1D32"/>
<path d="M77.3457 55.793V57.0458H83.838V55.793H77.3457Z" fill="#0C1D32"/>
<path d="M90.9818 62.4963C91.8116 62.4963 92.544 62.3336 93.146 62.0244C93.748 61.7153 94.2199 61.3085 94.529 60.7878C94.8382 60.2672 95.0009 59.6976 95.0009 59.0956C95.0009 58.396 94.8382 57.8265 94.4965 57.3872C94.1548 56.9478 93.7643 56.6224 93.2924 56.4109C92.8206 56.1994 92.2185 55.9716 91.4862 55.76C90.9493 55.5973 90.5262 55.4509 90.2333 55.3207C89.9242 55.2068 89.6801 55.0441 89.4849 54.8326C89.2733 54.6373 89.1757 54.3933 89.1757 54.0841C89.1757 53.6448 89.3059 53.3194 89.5825 53.0916C89.8428 52.8638 90.2008 52.7498 90.6401 52.7498C91.1445 52.7498 91.5676 52.8799 91.8767 53.1241C92.1859 53.3844 92.3486 53.7099 92.3649 54.1004H94.8707C94.7894 53.0753 94.3989 52.2779 93.6667 51.7084C92.9345 51.1389 91.9745 50.8623 90.8028 50.8623C90.0218 50.8623 89.3221 50.9925 88.72 51.2528C88.118 51.5294 87.6461 51.9037 87.3044 52.4081C86.9627 52.9125 86.8 53.4983 86.8 54.1655C86.8 54.8814 86.9627 55.4509 87.3044 55.8739C87.6298 56.3133 88.0203 56.6224 88.4922 56.8339C88.9478 57.0455 89.5498 57.2733 90.2822 57.4848C90.8191 57.6312 91.2584 57.7777 91.5676 57.8916C91.8767 58.0217 92.1208 58.2007 92.3323 58.4122C92.5438 58.6238 92.6415 58.9004 92.6415 59.2421C92.6415 59.6488 92.495 59.9905 92.1859 60.2346C91.8767 60.495 91.47 60.6251 90.933 60.6251C90.4123 60.6251 90.0055 60.495 89.7127 60.2183C89.4035 59.9417 89.2408 59.5838 89.2083 59.1119H86.7676C86.7838 59.8116 86.9628 60.4136 87.3371 60.918C87.7113 61.4224 88.2157 61.8129 88.8504 62.0895C89.485 62.3661 90.1846 62.4963 90.9819 62.4963H90.9818Z" fill="#0C1D32"/>
<path d="M3.02293 71.657C3.32187 71.657 3.59242 71.6 3.84154 71.479C4.08359 71.3651 4.28288 71.1944 4.43235 70.9736L4.16898 70.7814C4.03376 70.9666 3.86993 71.1018 3.67782 71.1944C3.47852 71.2869 3.2578 71.3368 3.02293 71.3368C2.73106 71.3368 2.47476 71.2727 2.24696 71.1375C2.0121 71.0093 1.83413 70.8243 1.70598 70.5893C1.57076 70.3544 1.50668 70.0768 1.50668 69.7707C1.50668 69.4646 1.57076 69.1869 1.70598 68.9521C1.83413 68.7171 2.0121 68.5321 2.24696 68.3968C2.47476 68.2687 2.73095 68.2046 3.02293 68.2046C3.2578 68.2046 3.47852 68.2474 3.67782 68.3398C3.87004 68.4324 4.03376 68.5747 4.16898 68.7598L4.43235 68.5676C4.28288 68.3469 4.08359 68.1761 3.84154 68.0551C3.59242 67.9412 3.32187 67.8842 3.02293 67.8842C2.65992 67.8842 2.33954 67.9626 2.05474 68.1191C1.77005 68.2828 1.54932 68.5036 1.3856 68.7882C1.22188 69.0801 1.14355 69.4076 1.14355 69.7706C1.14355 70.1336 1.22188 70.454 1.3856 70.7388C1.54932 71.0306 1.76994 71.2513 2.05474 71.415C2.33954 71.5787 2.6598 71.657 3.02293 71.657ZM8.13399 67.9126H4.87369V68.233H6.32587V71.6285H6.68181V68.233H8.13399V67.9126ZM11.017 67.8841C10.6824 67.8841 10.3835 67.9625 10.1201 68.119C9.84953 68.2827 9.64317 68.5034 9.49359 68.7881V67.9125H9.15189V73.0093H9.50784V70.7812C9.65731 71.0588 9.86378 71.2723 10.1272 71.4218C10.3905 71.5785 10.6896 71.6568 11.017 71.6568C11.3658 71.6568 11.679 71.5785 11.9566 71.4147C12.2342 71.2582 12.4549 71.0375 12.6187 70.7456C12.7752 70.4608 12.8535 70.1334 12.8535 69.7703C12.8535 69.4073 12.7752 69.0799 12.6187 68.7951C12.4549 68.5104 12.2342 68.2897 11.9566 68.1259C11.679 67.9622 11.3658 67.8839 11.017 67.8839V67.8841ZM10.9956 71.3366C10.7109 71.3366 10.4546 71.2726 10.234 71.1373C10.0062 71.0021 9.82821 70.817 9.70006 70.5821C9.56484 70.3472 9.50077 70.0767 9.50077 69.7706C9.50077 69.4645 9.56484 69.194 9.70006 68.9591C9.82821 68.7243 10.0062 68.5391 10.234 68.4039C10.4546 68.2687 10.7109 68.2046 10.9956 68.2046C11.2803 68.2046 11.5366 68.2687 11.7644 68.4039C11.9922 68.5391 12.1701 68.7243 12.3054 68.9591C12.4335 69.194 12.4976 69.4646 12.4976 69.7706C12.4976 70.0767 12.4335 70.3472 12.3054 70.5821C12.1701 70.817 11.9922 71.0021 11.7644 71.1373C11.5366 71.2726 11.2803 71.3366 10.9956 71.3366ZM15.7436 71.657C16.0925 71.657 16.4128 71.5787 16.6976 71.415C16.9752 71.2513 17.1959 71.0306 17.3595 70.7388C17.5232 70.454 17.6016 70.1337 17.6016 69.7706C17.6016 69.4076 17.5232 69.0872 17.3595 68.7953C17.1958 68.5106 16.9752 68.2899 16.6976 68.1262C16.4129 67.9625 16.0925 67.8841 15.7436 67.8841C15.3949 67.8841 15.0745 67.9625 14.7969 68.1262C14.5122 68.2899 14.2915 68.5106 14.1277 68.7953C13.964 69.0872 13.8857 69.4074 13.8857 69.7706C13.8857 70.1336 13.964 70.454 14.1277 70.7388C14.2915 71.0306 14.5121 71.2513 14.7969 71.415C15.0745 71.5787 15.3949 71.657 15.7436 71.657ZM15.7436 71.3366C15.4589 71.3366 15.2026 71.2726 14.9819 71.1373C14.7541 71.0021 14.5761 70.817 14.4481 70.5821C14.3129 70.3472 14.2488 70.0767 14.2488 69.7706C14.2488 69.4645 14.3129 69.194 14.4481 68.9591C14.5763 68.7243 14.7542 68.5391 14.9819 68.4039C15.2026 68.2687 15.4588 68.2046 15.7436 68.2046C16.0283 68.2046 16.2846 68.2687 16.5124 68.4039C16.7331 68.5391 16.9111 68.7243 17.0463 68.9591C17.1745 69.194 17.2386 69.4646 17.2386 69.7706C17.2386 70.0767 17.1745 70.3472 17.0463 70.5821C16.9111 70.817 16.7331 71.0021 16.5124 71.1373C16.2846 71.2726 16.0283 71.3366 15.7436 71.3366ZM19.0109 71.6285H19.3241L21.9721 68.4608V71.6285H22.3281V67.9126H22.0149L19.3668 71.0803V67.9126H19.0109V71.6285ZM26.5992 67.9126H23.3389V68.233H24.7911V71.6285H25.147V68.233H26.5992V67.9126ZM30.614 69.7563C30.614 69.3933 30.5357 69.0729 30.3862 68.7882C30.2297 68.5036 30.016 68.2828 29.7527 68.1191C29.4821 67.9626 29.1761 67.8842 28.8415 67.8842C28.507 67.8842 28.2008 67.9626 27.9303 68.1263C27.6597 68.29 27.4462 68.5107 27.2967 68.7954C27.1401 69.0873 27.0619 69.4076 27.0619 69.7707C27.0619 70.1337 27.1473 70.4611 27.311 70.7459C27.4747 71.0306 27.6953 71.2514 27.9873 71.4151C28.2792 71.5788 28.6066 71.6571 28.9767 71.6571C29.2615 71.6571 29.5249 71.6073 29.774 71.5005C30.016 71.3938 30.2153 71.2443 30.379 71.052L30.1727 70.8171C30.0375 70.988 29.8666 71.1161 29.6601 71.2015C29.4537 71.2941 29.2259 71.3368 28.9839 71.3368C28.692 71.3368 28.4286 71.2727 28.1937 71.1517C27.9588 71.0306 27.7666 70.8527 27.6313 70.625C27.4961 70.4042 27.4178 70.1481 27.4106 69.8562H30.6068L30.6139 69.7565L30.614 69.7563ZM28.8415 68.1973C29.1048 68.1973 29.3398 68.2542 29.5462 68.3753C29.7525 68.4964 29.9235 68.66 30.0516 68.8665C30.1798 69.0728 30.2509 69.3149 30.2651 69.5782H27.4177C27.4391 69.3149 27.5103 69.0728 27.6384 68.8593C27.7595 68.6528 27.9303 68.4891 28.1368 68.3681C28.3432 68.2542 28.5781 68.1972 28.8415 68.1972V68.1973ZM32.23 67.9126L32.166 69.194C32.1445 69.6567 32.1091 70.0339 32.0734 70.3259C32.0378 70.6178 31.9667 70.8597 31.8598 71.052C31.7531 71.2442 31.6036 71.3438 31.4042 71.3438C31.3687 71.3438 31.3117 71.3368 31.2334 71.3153L31.1979 71.6214C31.3331 71.657 31.4327 71.6713 31.504 71.6713C31.746 71.6713 31.9383 71.5646 32.0735 71.3509C32.2087 71.1374 32.3084 70.8597 32.3654 70.511C32.4224 70.1621 32.465 69.735 32.4935 69.2225L32.5433 68.2331H34.4796V71.6286H34.8355V67.9127H32.2301L32.23 67.9126ZM38.1099 69.2652L36.9781 69.2509V67.9126H36.6221V71.6285L38.0245 71.6428C38.5156 71.6498 38.8858 71.5431 39.1421 71.3366C39.3983 71.1302 39.5265 70.824 39.5265 70.4325C39.5265 70.0553 39.4055 69.7634 39.1635 69.5641C38.9214 69.3719 38.5726 69.2722 38.1099 69.265V69.2652ZM38.0173 71.358L36.9781 71.3437V69.5285L38.0173 69.5356C38.4017 69.5427 38.6864 69.621 38.8787 69.7634C39.0709 69.9129 39.1633 70.1336 39.1633 70.4325C39.1633 70.7386 39.0637 70.9735 38.8715 71.1302C38.6793 71.2868 38.3946 71.365 38.0172 71.358H38.0173ZM42.3097 71.657C42.6087 71.657 42.8792 71.6 43.1284 71.479C43.3704 71.3651 43.5697 71.1944 43.7192 70.9736L43.4558 70.7814C43.3206 70.9666 43.1567 71.1018 42.9646 71.1944C42.7653 71.2869 42.5446 71.3368 42.3097 71.3368C42.0179 71.3368 41.7616 71.2727 41.5338 71.1375C41.2989 71.0093 41.1209 70.8243 40.9928 70.5893C40.8576 70.3544 40.7935 70.0768 40.7935 69.7707C40.7935 69.4646 40.8576 69.1869 40.9928 68.9521C41.1209 68.7171 41.2989 68.5321 41.5338 68.3968C41.7616 68.2687 42.0178 68.2046 42.3097 68.2046C42.5446 68.2046 42.7653 68.2474 42.9646 68.3398C43.1569 68.4324 43.3206 68.5747 43.4558 68.7598L43.7192 68.5676C43.5697 68.3469 43.3704 68.1761 43.1284 68.0551C42.8792 67.9412 42.6087 67.8842 42.3097 67.8842C41.9467 67.8842 41.6264 67.9626 41.3416 68.1191C41.0569 68.2828 40.8361 68.5036 40.6724 68.7882C40.5087 69.0801 40.4304 69.4076 40.4304 69.7706C40.4304 70.1336 40.5087 70.454 40.6724 70.7388C40.8361 71.0306 41.0568 71.2513 41.3416 71.415C41.6264 71.5787 41.9466 71.657 42.3097 71.657ZM47.4208 67.9126H44.1605V68.233H45.6127V71.6285H45.9686V68.233H47.4208V67.9126ZM50.6313 69.7136C50.852 69.6495 51.0228 69.5498 51.1438 69.4004C51.2648 69.258 51.3217 69.08 51.3217 68.8594C51.3217 68.5533 51.2078 68.3184 50.9729 68.1547C50.738 67.991 50.4105 67.9126 49.9976 67.9126H48.4315V71.6285H50.0403C50.5102 71.6285 50.8661 71.5431 51.101 71.3722C51.3359 71.2014 51.4499 70.9522 51.4499 70.6319C51.4499 70.1123 51.1793 69.8061 50.6313 69.7137V69.7136ZM48.7804 68.2044H49.9764C50.2968 68.2044 50.5459 68.2613 50.7167 68.3753C50.8804 68.4964 50.9658 68.6672 50.9658 68.902C50.9658 69.1298 50.8804 69.3007 50.7096 69.4217C50.5387 69.5427 50.2968 69.6067 49.9764 69.6067H48.7804V68.2044ZM50.0333 71.3365H48.7804V69.8844H50.0902C50.439 69.8844 50.6882 69.9413 50.8519 70.0623C51.0156 70.1833 51.0939 70.3685 51.0939 70.6176C51.0939 71.0945 50.738 71.3365 50.0333 71.3365ZM54.4467 71.6569C54.7956 71.6569 55.1158 71.5786 55.4006 71.4149C55.6782 71.2511 55.899 71.0305 56.0626 70.7387C56.2263 70.4539 56.3046 70.1336 56.3046 69.7705C56.3046 69.4074 56.2263 69.0871 56.0626 68.7952C55.8989 68.5105 55.6782 68.2898 55.4006 68.1261C55.1159 67.9623 54.7956 67.884 54.4467 67.884C54.0979 67.884 53.7776 67.9623 53.4999 68.1261C53.2152 68.2898 52.9945 68.5105 52.8308 68.7952C52.6671 69.0871 52.5888 69.4073 52.5888 69.7705C52.5888 70.1335 52.6671 70.4539 52.8308 70.7387C52.9945 71.0305 53.2151 71.2511 53.4999 71.4149C53.7776 71.5786 54.0979 71.6569 54.4467 71.6569ZM54.4467 71.3365C54.162 71.3365 53.9057 71.2725 53.685 71.1372C53.4572 71.002 53.2792 70.8169 53.1512 70.582C53.0159 70.3471 52.9519 70.0766 52.9519 69.7705C52.9519 69.4643 53.0159 69.1939 53.1512 68.959C53.2793 68.7242 53.4573 68.539 53.685 68.4038C53.9057 68.2686 54.1619 68.2045 54.4467 68.2045C54.7314 68.2045 54.9877 68.2686 55.2155 68.4038C55.4362 68.539 55.6142 68.7242 55.7494 68.959C55.8775 69.1939 55.9416 69.4644 55.9416 69.7705C55.9416 70.0766 55.8775 70.3471 55.7494 70.582C55.6142 70.8169 55.4362 71.002 55.2155 71.1372C54.9877 71.2725 54.7314 71.3365 54.4467 71.3365ZM59.7926 71.6284H60.1058L62.7539 68.4607V71.6284H63.1098V67.9125H62.7966L60.1486 71.0802V67.9125H59.7926V71.6284ZM68.8472 67.884C68.5126 67.884 68.2137 67.9623 67.9503 68.1189C67.6798 68.2826 67.4734 68.5033 67.3238 68.788V67.9124H66.9821V73.0092H67.3381V70.7811C67.4875 71.0587 67.694 71.2722 67.9574 71.4217C68.2207 71.5784 68.5198 71.6567 68.8472 71.6567C69.196 71.6567 69.5092 71.5784 69.7868 71.4146C70.0644 71.2581 70.2852 71.0374 70.4489 70.7455C70.6054 70.4607 70.6838 70.1332 70.6838 69.7702C70.6838 69.4072 70.6054 69.0798 70.4489 68.795C70.2852 68.5103 70.0644 68.2896 69.7868 68.1258C69.5092 67.9621 69.196 67.8838 68.8472 67.8838V67.884ZM68.8258 71.3365C68.5411 71.3365 68.2848 71.2725 68.0642 71.1372C67.8364 71.002 67.6584 70.8169 67.5303 70.582C67.3951 70.3471 67.331 70.0766 67.331 69.7705C67.331 69.4643 67.3951 69.1939 67.5303 68.959C67.6584 68.7242 67.8364 68.539 68.0642 68.4038C68.2848 68.2686 68.5411 68.2045 68.8258 68.2045C69.1105 68.2045 69.3668 68.2686 69.5946 68.4038C69.8224 68.539 70.0004 68.7242 70.1356 68.959C70.2637 69.1939 70.3278 69.4644 70.3278 69.7705C70.3278 70.0766 70.2637 70.3471 70.1356 70.582C70.0004 70.8169 69.8224 71.002 69.5946 71.1372C69.3668 71.2725 69.1105 71.3365 68.8258 71.3365ZM75.268 69.7562C75.268 69.3932 75.1896 69.0728 75.0402 68.7881C74.8836 68.5034 74.67 68.2827 74.4066 68.119C74.136 67.9625 73.83 67.8841 73.4954 67.8841C73.1609 67.8841 72.8548 67.9625 72.5842 68.1262C72.3137 68.2899 72.1001 68.5106 71.9507 68.7953C71.794 69.0872 71.7158 69.4074 71.7158 69.7706C71.7158 70.1336 71.8012 70.461 71.9649 70.7458C72.1286 71.0305 72.3493 71.2513 72.6412 71.415C72.9331 71.5787 73.2605 71.657 73.6306 71.657C73.9154 71.657 74.1788 71.6072 74.4279 71.5004C74.67 71.3937 74.8693 71.2442 75.033 71.0518L74.8266 70.817C74.6914 70.9879 74.5205 71.116 74.314 71.2014C74.1077 71.294 73.8799 71.3366 73.6378 71.3366C73.3459 71.3366 73.0826 71.2726 72.8476 71.1516C72.6127 71.0305 72.4205 70.8525 72.2853 70.6249C72.1501 70.4041 72.0717 70.148 72.0646 69.8561H75.2608L75.2678 69.7564L75.268 69.7562ZM73.4954 68.1972C73.7588 68.1972 73.9938 68.2541 74.2001 68.3752C74.4065 68.4963 74.5774 68.6599 74.7055 68.8663C74.8337 69.0727 74.9048 69.3148 74.9191 69.5781H72.0716C72.0931 69.3148 72.1642 69.0727 72.2924 68.8592C72.4134 68.6527 72.5842 68.489 72.7907 68.368C72.9972 68.2541 73.232 68.1971 73.4954 68.1971V68.1972ZM80.3932 67.9125L78.706 70.7243L77.026 67.9125H76.6773V71.6284H77.0047V68.4891L78.6135 71.1515H78.7773L80.3932 68.482V71.6284H80.7206V67.9125H80.3932ZM83.9881 71.6569C84.337 71.6569 84.6572 71.5786 84.942 71.4149C85.2196 71.2511 85.4404 71.0305 85.604 70.7387C85.7677 70.4539 85.846 70.1336 85.846 69.7705C85.846 69.4074 85.7677 69.0871 85.604 68.7952C85.4403 68.5105 85.2196 68.2898 84.942 68.1261C84.6573 67.9623 84.337 67.884 83.9881 67.884C83.6393 67.884 83.3189 67.9623 83.0413 68.1261C82.7566 68.2898 82.5359 68.5105 82.3722 68.7952C82.2085 69.0871 82.1301 69.4073 82.1301 69.7705C82.1301 70.1335 82.2085 70.4539 82.3722 70.7387C82.5359 71.0305 82.7565 71.2511 83.0413 71.4149C83.3189 71.5786 83.6393 71.6569 83.9881 71.6569ZM83.9881 71.3365C83.7034 71.3365 83.4471 71.2725 83.2264 71.1372C82.9986 71.002 82.8206 70.8169 82.6926 70.582C82.5573 70.3471 82.4933 70.0766 82.4933 69.7705C82.4933 69.4643 82.5573 69.1939 82.6926 68.959C82.8207 68.7242 82.9987 68.539 83.2264 68.4038C83.4471 68.2686 83.7033 68.2045 83.9881 68.2045C84.2728 68.2045 84.5291 68.2686 84.7569 68.4038C84.9776 68.539 85.1556 68.7242 85.2908 68.959C85.4189 69.1939 85.483 69.4644 85.483 69.7705C85.483 70.0766 85.4189 70.3471 85.2908 70.582C85.1556 70.8169 84.9776 71.002 84.7569 71.1372C84.5291 71.2725 84.2728 71.3365 83.9881 71.3365ZM87.2553 71.6284H87.6113V69.9199H90.1313V71.6284H90.4872V67.9125H90.1313V69.6067H87.6113V67.9125H87.2553V71.6284ZM94.7582 67.9125H91.498V68.2329H92.9501V71.6284H93.3061V68.2329H94.7582V67.9125Z" fill="#0C1D32"/>
</svg>
