<svg width="25" height="25" viewBox="0 0 25 25" fill="none" xmlns="http://www.w3.org/2000/svg">
<path d="M12.9905 22.7109C7.46845 22.7109 2.99219 18.2366 2.99219 12.7168C2.99219 7.19704 7.46845 2.72266 12.9905 2.72266C18.5126 2.72266 22.9889 7.19704 22.9889 12.7168C22.9889 18.2366 18.5126 22.7109 12.9905 22.7109ZM9.88105 13.8861L9.89405 13.8791L10.7639 16.7474C10.8759 17.0583 11.0299 17.1142 11.2168 17.0882C11.4048 17.0633 11.5038 16.9623 11.6268 16.8444L12.8146 15.6971L15.3642 17.584C15.8301 17.8408 16.165 17.7079 16.281 17.1522L17.9377 9.33478C18.1207 8.60721 17.8007 8.31538 17.2358 8.54724L7.50444 12.305C6.84055 12.5709 6.84455 12.9427 7.38446 13.1076L9.88105 13.8871V13.8861Z" fill="#1C314E"/>
</svg>
