<svg width="58" height="18" viewBox="0 0 58 18" fill="none" xmlns="http://www.w3.org/2000/svg">
<g clip-path="url(#clip0_268_341)">
<path fill-rule="evenodd" clip-rule="evenodd" d="M56.7889 0.921875C57.4594 0.921875 57.9999 1.45201 57.9999 2.10959C57.9999 2.76717 57.4594 3.29732 56.7889 3.29732C56.1184 3.29732 55.5779 2.76717 55.5779 2.10959C55.5779 1.45201 56.1184 0.921875 56.7889 0.921875ZM56.7889 1.10029C57.3555 1.10029 57.818 1.55397 57.818 2.10959C57.818 2.66523 57.3555 3.1189 56.7889 3.1189C56.2224 3.1189 55.7598 2.66523 55.7598 2.10959C55.7598 1.55397 56.2224 1.10029 56.7889 1.10029Z" fill="#DA0302"/>
<path d="M56.3107 2.68134V1.5293H56.8305C56.9344 1.5293 57.0176 1.53949 57.0695 1.55988C57.1215 1.58027 57.1683 1.61596 57.1995 1.67203C57.2307 1.723 57.2463 1.78417 57.2463 1.84534C57.2463 1.9269 57.2203 1.99827 57.1631 2.05434C57.1111 2.11042 57.028 2.14609 56.9136 2.16139C56.9552 2.18178 56.9864 2.20217 57.0071 2.21746C57.0539 2.25824 57.0955 2.30921 57.1371 2.37039L57.3398 2.68643H57.1475L56.9916 2.44685C56.9448 2.37548 56.9084 2.32451 56.8772 2.28882C56.846 2.25314 56.82 2.22766 56.7993 2.21236C56.7784 2.19707 56.7525 2.18688 56.7265 2.18178C56.7109 2.17668 56.6797 2.17668 56.6381 2.17668H56.4562V2.69153H56.3003L56.3107 2.68134ZM56.4666 2.03905H56.7993C56.8721 2.03905 56.924 2.03395 56.9656 2.01866C57.0071 2.00337 57.0383 1.98298 57.0539 1.94729C57.0747 1.91671 57.0851 1.88102 57.0851 1.84534C57.0851 1.78927 57.0643 1.74339 57.0227 1.71281C56.9812 1.67712 56.9188 1.66183 56.8305 1.66183H56.4562V2.04415L56.4666 2.03905Z" fill="#DA0302"/>
<path fill-rule="evenodd" clip-rule="evenodd" d="M55.1829 4.12305C54.6944 3.87837 54.1486 3.72034 53.6133 3.61329C52.9272 3.47566 52.2255 3.4043 51.5238 3.4043C50.6766 3.4043 49.793 3.50115 48.9978 3.8121C48.3949 4.04658 47.8283 4.38812 47.4281 4.89787C47.0747 5.35155 46.9031 5.86642 46.9031 6.4373C46.9031 7.02353 47.0331 7.62502 47.4541 8.06343C47.8283 8.45082 48.2753 8.72099 48.8003 8.86882C49.4396 9.04724 50.1204 9.15428 50.7805 9.23585C51.2275 9.29193 51.7369 9.36837 52.1683 9.5009C52.4698 9.59776 52.7193 9.78637 52.7193 10.1228C52.7193 10.4287 52.5374 10.6428 52.2619 10.7702C51.9136 10.9384 51.3731 10.9588 50.9937 10.9588C50.3596 10.9588 49.7255 10.8722 49.1121 10.7142C47.5892 10.3165 46.7524 12.1363 46.7524 12.1363C47.2826 12.432 47.9063 12.6257 48.4936 12.7582C49.2785 12.9418 50.0789 13.0284 50.8897 13.0284C51.7525 13.0284 52.6569 12.9315 53.4677 12.6308C54.0759 12.4065 54.6528 12.0701 55.053 11.5552C55.4064 11.1067 55.578 10.5969 55.578 10.0311C55.578 9.45505 55.4532 8.86375 55.0374 8.43046C54.6736 8.04813 54.237 7.77796 53.7276 7.63013C53.0831 7.44153 52.397 7.3243 51.7369 7.22744C51.2847 7.16118 50.7598 7.08468 50.3284 6.94197C50.0165 6.84511 49.7878 6.6412 49.7878 6.30477C49.7878 5.99382 50.0009 5.78992 50.266 5.65739C50.6246 5.47898 51.1496 5.4535 51.5446 5.4535C52.002 5.4535 52.449 5.49937 52.8804 5.59622C54.632 5.97852 55.1829 4.12305 55.1829 4.12305Z" fill="#DA0302"/>
<path fill-rule="evenodd" clip-rule="evenodd" d="M40.8219 10.6945C40.1878 10.6945 39.6368 10.4804 39.2002 10.0216C38.7273 9.52208 38.5713 8.86452 38.5713 8.20183C38.5713 7.54422 38.7324 6.89683 39.2002 6.40752C39.6368 5.9538 40.1878 5.74483 40.8219 5.74483C41.456 5.74483 42.0069 5.9538 42.4435 6.40752C42.9165 6.89683 43.0725 7.54422 43.0725 8.20183C43.0725 8.86452 42.9165 9.52208 42.4435 10.0216C42.0121 10.4804 41.456 10.6945 40.8219 10.6945ZM46.2014 8.20183C46.2014 7.31483 45.9935 6.47378 45.5205 5.71935C45.0528 4.97509 44.4082 4.41437 43.613 4.02186C42.7398 3.58857 41.7938 3.41016 40.8219 3.41016C39.8551 3.41016 38.9092 3.58857 38.0412 4.02186C37.246 4.41947 36.6014 4.98529 36.1336 5.72953C35.6555 6.48396 35.4424 7.31995 35.4424 8.20183C35.4424 9.0939 35.6555 9.93495 36.1336 10.6945C36.6066 11.4439 37.2563 12.0097 38.0516 12.4124C38.9144 12.8507 39.8551 13.0343 40.8219 13.0343C41.7938 13.0343 42.7398 12.8507 43.613 12.4124C44.4082 12.0097 45.0579 11.4439 45.5205 10.6945C45.9935 9.93495 46.2014 9.0939 46.2014 8.20183Z" fill="#DA0302"/>
<path fill-rule="evenodd" clip-rule="evenodd" d="M32.3759 12.8712H36.0973L31.7937 7.50864L37.0537 2.14606C34.7616 2.29898 32.7969 3.02792 31.0505 4.57247C30.2137 5.31161 29.4341 6.11189 28.6336 6.88162L28.327 7.17221L27.2302 8.09488L28.327 6.48911V0C25.302 0 25.4527 2.40603 25.4527 2.40603V12.8712H28.327V10.6028L29.538 9.3947L32.3707 12.8712H32.3759Z" fill="#DA0302"/>
<path fill-rule="evenodd" clip-rule="evenodd" d="M19.0594 5.45936C19.6 5.45936 20.099 5.60209 20.5096 5.94874C20.9202 6.29023 21.1541 6.74395 21.2528 7.26387L21.2944 7.47289H16.8297L16.8713 7.26387C16.97 6.74901 17.2039 6.29023 17.6145 5.94874C18.0303 5.60719 18.5293 5.45936 19.0646 5.45936H19.0594ZM24.1635 8.90018C24.2051 7.84498 24.0076 6.53492 23.4566 5.64797C23.0096 4.92412 22.4015 4.36849 21.6323 3.98618C20.8214 3.58347 19.9482 3.41016 19.0439 3.41016C18.0979 3.41016 17.1883 3.59367 16.3463 4.03206C15.5667 4.43476 14.9378 5.00058 14.4804 5.73972C14.0126 6.49414 13.8047 7.32507 13.8047 8.2069C13.8047 9.09897 14.0178 9.94007 14.496 10.6996C14.9741 11.4592 15.6395 12.0199 16.4502 12.4175C17.3702 12.866 18.3838 13.0393 19.4025 13.0393C21.5595 13.0393 23.3163 12.0555 23.9816 10.0624C20.8266 9.46088 22.1416 10.2154 20.0106 10.7761C18.7424 11.1125 17.2143 10.5875 16.9181 9.11427L16.8765 8.9053H24.1635V8.90018Z" fill="#DA0302"/>
<path fill-rule="evenodd" clip-rule="evenodd" d="M5.707 10.4083H3.25373V3.21058H5.707C6.73091 3.21058 7.69765 3.47055 8.45653 4.16891C9.22056 4.86727 9.50122 5.8052 9.50122 6.80943C9.50122 7.81873 9.2154 8.75158 8.45653 9.44992C7.69765 10.1483 6.73091 10.4083 5.707 10.4083ZM0.0156217 3.30233V12.8704H5.8525C7.10513 12.8704 8.34737 12.6613 9.48046 12.121C10.494 11.6419 11.3204 10.9486 11.9129 10.0107C12.5263 9.03705 12.7757 7.94619 12.7757 6.80431C12.7757 5.66756 12.5263 4.57161 11.9129 3.59799C11.3204 2.66004 10.494 1.97188 9.48046 1.48762C8.34737 0.947278 7.10513 0.738281 5.8525 0.738281C4.85978 0.738281 3.87224 0.738281 2.8847 0.738281C-0.415779 0.738281 0.0208194 3.29213 0.0208194 3.29213L0.0156217 3.30233Z" fill="#DA0302"/>
<path fill-rule="evenodd" clip-rule="evenodd" d="M49.6629 14.7211C38.1398 17.4482 19.6312 10.852 5.91992 17.9988C21.6946 14.8842 39.7251 21.5008 49.6629 14.7211Z" fill="#DA0302"/>
</g>
<defs>
<clipPath id="clip0_268_341">
<rect width="58" height="18" fill="white"/>
</clipPath>
</defs>
</svg>
