<svg width="45" height="31" viewBox="0 0 45 31" fill="none" xmlns="http://www.w3.org/2000/svg">
<path fill-rule="evenodd" clip-rule="evenodd" d="M16.0612 13.2918C15.3661 12.7716 14.1847 11.6939 13.4471 11.0836C12.8089 10.5554 10.6224 8.63359 10.1506 8.30169C9.00532 7.49692 8.46839 8.90661 8.14751 9.549L0.37392 24.828C0.230199 25.1144 0.0250175 25.3571 0.068405 25.78C0.420024 25.9647 0.928017 25.8987 1.42788 25.8996C2.92836 25.9013 2.57403 26.0004 3.77442 23.6316L9.45546 12.471C9.59738 12.1962 9.83781 11.6501 9.9969 11.4628C10.2084 11.5368 14.9575 15.649 15.5261 16.1067C17.0094 17.3014 17.2987 16.0362 18.6084 13.985L24.1367 5.245C24.3455 4.91667 24.6827 4.28409 24.9312 4.01197L30.3185 14.5623C30.5463 15.0138 30.9549 16.0237 31.292 16.2245C31.6039 16.4101 33.5084 16.3877 33.8112 16.2325C33.898 15.9202 33.5925 15.4893 33.4587 15.2252C33.2933 14.9004 33.1188 14.5676 32.9579 14.2366L29.9669 8.33024C29.2718 7.02406 28.6698 5.71787 27.9819 4.40454L25.9915 0.483297C25.5251 -0.275078 24.5525 -0.0636249 24.1258 0.584116C23.7119 1.21312 23.3512 1.80198 22.9707 2.41314L17.2327 11.4887C17.0239 11.8179 16.8566 12.0873 16.6569 12.4041C16.4824 12.6797 16.2456 13.1089 16.0612 13.2918Z" fill="#E30613"/>
<path fill-rule="evenodd" clip-rule="evenodd" d="M24.6819 23.2158C24.9296 23.5611 25.3987 24.7852 25.6121 25.2438C25.9637 26.0004 25.7612 25.8951 27.1876 25.9005C28.1105 25.904 27.9848 25.8327 27.4895 24.7736L26.0279 21.7089L26.8893 20.6721C27.0511 20.4821 27.1776 20.3634 27.3367 20.1761C27.4642 20.0253 27.6775 19.8388 27.6775 19.5845C27.381 19.407 26.7139 19.4935 26.2864 19.4926C25.396 19.49 25.5072 19.7032 24.578 20.7658C24.4234 20.9425 23.9986 21.4974 23.8467 21.5661L23.8449 17.6038C23.8449 17.0756 23.9019 17.0275 23.3306 17.0328C23.0115 17.0364 22.5758 17.0087 22.273 17.0346C21.8455 17.0712 21.944 17.3629 21.9458 17.7519L21.9467 25.0734C21.9458 25.358 21.85 25.7952 22.1528 25.8817C22.3083 25.9254 22.9709 25.8996 23.1797 25.9013C23.6298 25.904 23.835 25.9995 23.8485 25.5231C23.8793 24.4453 23.6985 24.2356 24.1586 23.7636C24.3629 23.5522 24.465 23.3782 24.6819 23.2158Z" fill="#1D1D1B"/>
<path fill-rule="evenodd" clip-rule="evenodd" d="M8.38212 25.8322C8.66956 25.9383 9.98836 25.9919 10.2541 25.8161C10.3743 25.5645 10.3111 22.9485 10.3065 22.4462C11.1255 22.3427 13.3825 22.5622 13.9167 22.3641C13.9945 22.1036 14.0297 21.1632 13.9258 20.9116C13.7513 20.6395 11.1101 20.8768 10.3065 20.7778C10.321 19.1709 10.1393 19.0996 11.5521 19.1005C12.0366 19.1005 12.5211 19.1005 13.0056 19.1005C13.4105 19.1005 14.1445 19.2129 14.4157 18.9907C14.5278 18.7525 14.4925 17.6988 14.4094 17.4561C14.0614 17.3232 11.4156 17.3937 10.8001 17.3937C7.80995 17.3955 8.32247 19.7375 8.32247 22.2062C8.32247 22.8709 8.24744 25.411 8.38212 25.8322Z" fill="#1D1D1B"/>
<path fill-rule="evenodd" clip-rule="evenodd" d="M18.6149 24.3893C17.9795 24.5767 16.7068 24.7132 16.7077 23.8388C16.7095 22.8931 17.7969 23.0563 18.6149 23.0626V24.3893ZM15.6438 21.0801C16.3832 21.2184 18.7261 20.1353 18.6185 21.7573C17.5456 21.7903 16.4121 21.6493 15.6203 22.2132C14.4009 23.0822 14.0475 25.7445 17.015 26.0051C17.9524 26.0872 19.357 25.9881 20.1317 25.6295C20.6677 25.3814 20.5303 24.9835 20.5303 24.3331C20.5303 23.7558 20.5303 23.1786 20.5303 22.6013C20.5303 21.4379 20.5646 20.3851 19.8171 19.8364C19.0605 19.2814 17.9587 19.26 16.874 19.3903C16.5884 19.4242 15.6266 19.6017 15.4603 19.7329C15.2388 19.9068 15.5651 20.857 15.6438 21.0801Z" fill="#1D1D1B"/>
<path fill-rule="evenodd" clip-rule="evenodd" d="M36.2985 20.9956C37.2964 20.6976 37.6959 21.5113 37.7574 22.3544C37.8225 23.2573 37.6571 24.1799 36.9068 24.3824C35.9279 24.6465 35.5248 23.8917 35.4615 23.0477C35.3937 22.1528 35.5284 21.2258 36.2985 20.9956ZM36.2027 19.362C34.2837 19.593 33.368 20.9965 33.5009 23.0976C33.6311 25.1497 34.8405 26.2212 37.0614 26.0107C39.0292 25.8233 39.8753 24.3699 39.7261 22.2527C39.5914 20.3354 38.3296 19.105 36.2027 19.362Z" fill="#1D1D1B"/>
<path fill-rule="evenodd" clip-rule="evenodd" d="M28.0756 19.7798C27.9943 19.9582 27.997 20.5926 28.0756 20.7746C28.2645 21.0128 28.7761 20.8799 29.0844 20.9191C29.0726 21.9023 28.9289 24.5718 29.304 25.2615C29.5743 25.7593 30.1293 25.9868 30.8452 26.0252C31.1905 26.0439 32.4885 26.0038 32.8284 25.7914C33.123 25.6085 32.7515 24.3925 32.7181 24.3675C32.4225 24.2372 31.8729 24.4326 31.4942 24.4041C30.9356 24.363 30.979 24.057 30.9817 23.5395C30.9853 22.6616 30.9862 21.7819 30.9826 20.904L32.1522 20.9048C32.3511 20.8995 32.3421 20.9138 32.4424 20.8031C32.5744 20.6354 32.5246 19.7405 32.4587 19.5291C32.1423 19.4416 31.3875 19.4791 30.9916 19.4809C30.9527 18.9018 31.0612 18.1872 30.9148 17.6956C30.5993 17.6215 30.2504 17.7955 29.9413 17.8963C29.1657 18.1497 29.2281 17.9918 29.1612 18.9697C29.1467 19.1856 29.1847 19.3988 29.0383 19.4782L28.0756 19.7798Z" fill="#1D1D1B"/>
<path fill-rule="evenodd" clip-rule="evenodd" d="M42.7332 25.8147C42.8434 25.5524 42.7774 23.0114 42.7774 22.5002C42.7774 22.088 42.6509 21.2056 43.0143 21.0584C43.29 20.9469 44.2653 21.0753 44.6892 20.9719C44.785 20.7684 44.8989 19.6353 44.7181 19.3918C44.6259 19.2677 41.3882 18.744 40.91 20.7559C40.7581 21.3948 40.8548 23.4932 40.8548 24.2802C40.8548 24.6361 40.693 25.7799 41.042 25.8852C41.3213 25.9709 42.5515 25.9468 42.7332 25.8147Z" fill="#1D1D1B"/>
<path d="M2.16756 29.4523C2.16756 29.4604 2.16576 29.4675 2.16124 29.4737C2.15672 29.48 2.14949 29.4844 2.13954 29.488C2.1287 29.4916 2.11514 29.4952 2.09887 29.4969C2.0826 29.4996 2.06091 29.5005 2.03469 29.5005C2.01029 29.5005 1.98859 29.4996 1.97142 29.4969C1.95424 29.4943 1.94068 29.4916 1.92984 29.488C1.91989 29.4844 1.91266 29.4791 1.90814 29.4737C1.90453 29.4684 1.90182 29.4604 1.90182 29.4523V27.7375H1.89911L1.19677 29.4604C1.19406 29.4675 1.18954 29.4728 1.18411 29.4791C1.17779 29.4844 1.16965 29.488 1.15881 29.4925C1.14796 29.496 1.1353 29.4987 1.11993 29.5005C1.10547 29.5023 1.0874 29.5023 1.06751 29.5023C1.04582 29.5023 1.02684 29.5014 1.01238 29.4996C0.997009 29.4978 0.984349 29.4952 0.973503 29.4916C0.96356 29.488 0.955428 29.4844 0.949101 29.4791C0.943677 29.4737 0.939157 29.4693 0.93735 29.4621L0.264844 27.7393H0.263939V29.4541C0.263939 29.4621 0.26213 29.4693 0.257611 29.4755C0.253995 29.4818 0.246765 29.4862 0.235918 29.4898C0.225975 29.4934 0.211511 29.4969 0.194336 29.4987C0.177162 29.5014 0.156375 29.5023 0.129258 29.5023C0.103948 29.5023 0.0822536 29.5014 0.0659833 29.4987C0.049713 29.496 0.0352494 29.4934 0.0253065 29.4898C0.0153635 29.4862 0.00813493 29.4809 0.00542321 29.4755C0.00180759 29.4702 0 29.4621 0 29.4541V27.6429C0 27.6001 0.0117512 27.5698 0.0343489 27.5519C0.0569465 27.5341 0.0831575 27.5243 0.111179 27.5243H0.273881C0.306421 27.5243 0.336252 27.5269 0.360657 27.5341C0.385967 27.5394 0.407659 27.5493 0.426641 27.5626C0.445623 27.576 0.461895 27.593 0.473646 27.6126C0.4863 27.6331 0.497146 27.6563 0.506185 27.684L1.07745 29.1097H1.08559L1.67855 27.6875C1.6894 27.6572 1.70296 27.6313 1.71652 27.6099C1.73007 27.5885 1.74454 27.5716 1.76081 27.5591C1.77617 27.5466 1.79516 27.5376 1.81414 27.5314C1.83403 27.526 1.85752 27.5234 1.88283 27.5234H2.05367C2.06904 27.5234 2.0844 27.5252 2.09796 27.5305C2.11152 27.535 2.12327 27.5421 2.13321 27.5519C2.14316 27.5617 2.15129 27.5733 2.15762 27.5885C2.16395 27.6028 2.16666 27.6215 2.16666 27.642V29.4523H2.16756ZM3.7955 29.4541C3.7955 29.4621 3.79369 29.4693 3.79008 29.4746C3.78646 29.48 3.78013 29.4853 3.77019 29.4889C3.76115 29.4925 3.7494 29.496 3.73403 29.4978C3.71957 29.4996 3.70059 29.5005 3.6789 29.5005C3.6563 29.5005 3.63641 29.4996 3.62195 29.4978C3.60658 29.496 3.59483 29.4925 3.5867 29.4889C3.57766 29.4844 3.57223 29.4791 3.56862 29.4746C3.56591 29.4693 3.5641 29.4621 3.5641 29.4541V29.273C3.48456 29.3595 3.40682 29.422 3.32908 29.4612C3.25225 29.5005 3.17361 29.5201 3.09497 29.5201C3.00277 29.5201 2.92504 29.505 2.86176 29.4746C2.79849 29.4452 2.74697 29.4033 2.7081 29.3506C2.66923 29.2989 2.64121 29.2382 2.62403 29.1686C2.60686 29.099 2.59873 29.0143 2.59873 28.9152V28.0846C2.59873 28.0757 2.60054 28.0694 2.60415 28.0632C2.60777 28.0578 2.61409 28.0533 2.62494 28.048C2.63488 28.0435 2.64844 28.04 2.66471 28.0391C2.68098 28.0373 2.70177 28.0364 2.72618 28.0364C2.75058 28.0364 2.77137 28.0373 2.78764 28.0391C2.80391 28.04 2.81747 28.0435 2.82741 28.048C2.83645 28.0525 2.84369 28.0578 2.8473 28.0632C2.85182 28.0685 2.85363 28.0757 2.85363 28.0846V28.8822C2.85363 28.9625 2.85905 29.0267 2.8717 29.0749C2.88346 29.1231 2.90154 29.1641 2.92504 29.198C2.94944 29.2319 2.98018 29.2587 3.01724 29.2775C3.0543 29.2962 3.09678 29.306 3.1465 29.306C3.20977 29.306 3.27394 29.2837 3.33722 29.2391C3.40049 29.1945 3.46738 29.1285 3.53879 29.0428V28.0855C3.53879 28.0765 3.53969 28.0703 3.54421 28.0641C3.54783 28.0587 3.55416 28.0542 3.565 28.0489C3.57495 28.0444 3.5885 28.0409 3.60387 28.04C3.62014 28.0382 3.64093 28.0373 3.66624 28.0373C3.69065 28.0373 3.71144 28.0382 3.72771 28.04C3.74398 28.0409 3.75753 28.0444 3.76657 28.0489C3.77561 28.0533 3.78284 28.0587 3.78736 28.0641C3.79188 28.0694 3.79459 28.0765 3.79459 28.0855V29.4541H3.7955ZM5.34298 28.081C5.34298 28.0855 5.34298 28.0899 5.34208 28.0944C5.34208 28.0988 5.34027 28.1033 5.34027 28.1087C5.33937 28.114 5.33756 28.1185 5.33575 28.1247C5.33394 28.131 5.33214 28.1372 5.33033 28.1443L4.85759 29.4452C4.85307 29.4568 4.84765 29.4657 4.84132 29.4728C4.83409 29.48 4.82414 29.4862 4.81149 29.4898C4.79793 29.4943 4.78075 29.4969 4.75996 29.4987C4.73917 29.5005 4.71387 29.5005 4.68223 29.5005C4.6515 29.5005 4.62619 29.4996 4.6054 29.4978C4.58551 29.496 4.56834 29.4925 4.55568 29.4889C4.54212 29.4844 4.53218 29.4791 4.52586 29.472C4.51862 29.4648 4.5132 29.4559 4.50868 29.4461L4.03774 28.1452C4.03323 28.1328 4.03051 28.122 4.0278 28.1131C4.02509 28.1042 4.02328 28.0971 4.02328 28.0926C4.02238 28.0881 4.02238 28.0846 4.02238 28.081C4.02238 28.073 4.02509 28.0658 4.0278 28.0596C4.03142 28.0533 4.03865 28.0489 4.0495 28.0453C4.05853 28.0417 4.07209 28.04 4.08746 28.0382C4.10282 28.0373 4.12271 28.0364 4.14712 28.0364C4.17695 28.0364 4.20045 28.0373 4.21853 28.0391C4.2366 28.04 4.25016 28.0435 4.26011 28.048C4.27005 28.0516 4.27728 28.0569 4.2818 28.0632C4.28632 28.0694 4.29084 28.0765 4.29446 28.0855L4.68584 29.215L4.69217 29.2337L4.69669 29.215L5.08356 28.0855C5.08537 28.0765 5.08899 28.0685 5.09441 28.0632C5.09893 28.0569 5.10707 28.0516 5.11701 28.048C5.12695 28.0435 5.13961 28.0409 5.15678 28.0391C5.17395 28.0373 5.19655 28.0364 5.22457 28.0364C5.24807 28.0364 5.26796 28.0373 5.28333 28.0382C5.2987 28.0391 5.31044 28.0417 5.31948 28.0462C5.32852 28.0498 5.33395 28.0551 5.33847 28.0605C5.34208 28.0658 5.34298 28.073 5.34298 28.081ZM6.57049 29.4559C6.57049 29.4684 6.56597 29.4773 6.55874 29.4836C6.5506 29.4898 6.53885 29.4934 6.52439 29.4969C6.50993 29.5005 6.48914 29.5014 6.46112 29.5014C6.4349 29.5014 6.41321 29.4996 6.39784 29.4969C6.38157 29.4943 6.37072 29.4898 6.36349 29.4836C6.35536 29.4773 6.35265 29.4684 6.35265 29.4559V29.3194C6.29208 29.3827 6.22429 29.4327 6.15017 29.4684C6.07605 29.5032 5.99651 29.521 5.91335 29.521C5.84104 29.521 5.77415 29.5121 5.71539 29.4934C5.65664 29.4746 5.60602 29.447 5.56444 29.4113C5.52286 29.3756 5.49032 29.3319 5.46682 29.281C5.44332 29.2293 5.43157 29.1704 5.43157 29.1044C5.43157 29.0267 5.44784 28.9598 5.47948 28.9036C5.51111 28.8465 5.55721 28.7992 5.61687 28.7618C5.67652 28.7243 5.74974 28.6957 5.83652 28.677C5.92239 28.6583 6.02001 28.6484 6.12757 28.6484H6.3192V28.5414C6.3192 28.4887 6.31287 28.4423 6.30203 28.4013C6.29028 28.3612 6.2722 28.3273 6.24689 28.3005C6.22158 28.2737 6.18904 28.2532 6.14927 28.2398C6.10949 28.2255 6.05978 28.2193 6.00102 28.2193C5.93866 28.2193 5.88261 28.2264 5.8329 28.2416C5.78319 28.2568 5.7398 28.2728 5.70183 28.2907C5.66387 28.3085 5.63314 28.3255 5.60783 28.3397C5.58342 28.3549 5.56444 28.362 5.55179 28.362C5.54365 28.362 5.53552 28.3603 5.53009 28.3558C5.52377 28.3522 5.51925 28.346 5.51382 28.338C5.5093 28.3299 5.50568 28.3201 5.50388 28.3076C5.50207 28.2942 5.50117 28.2809 5.50117 28.2657C5.50117 28.2407 5.50207 28.2202 5.50659 28.2059C5.51021 28.1916 5.51924 28.1774 5.5328 28.164C5.54636 28.1515 5.57077 28.1354 5.60421 28.1176C5.63766 28.0997 5.67653 28.0837 5.72082 28.0685C5.7642 28.0542 5.81301 28.0417 5.86544 28.031C5.91787 28.0212 5.97029 28.0168 6.02362 28.0168C6.12305 28.0168 6.20802 28.0275 6.27763 28.0498C6.34723 28.0721 6.40417 28.1051 6.44666 28.1488C6.49004 28.1916 6.52077 28.2452 6.53975 28.3094C6.55964 28.3736 6.56958 28.4486 6.56958 28.5333V29.4559H6.57049ZM6.3183 28.8287H6.10046C6.03086 28.8287 5.97029 28.834 5.91877 28.8465C5.86815 28.8572 5.82477 28.8751 5.79132 28.8983C5.75788 28.9206 5.73257 28.9482 5.7163 28.9803C5.70093 29.0125 5.6928 29.0499 5.6928 29.091C5.6928 29.1624 5.71539 29.2186 5.76059 29.2605C5.80669 29.3024 5.87087 29.3238 5.95312 29.3238C6.01911 29.3238 6.08147 29.3069 6.13842 29.273C6.19537 29.24 6.25502 29.1882 6.3183 29.1195V28.8287ZM8.59704 27.5207C8.59704 27.5537 8.59433 27.5769 8.58891 27.5903C8.58439 27.6046 8.57445 27.6117 8.56179 27.6117C8.55366 27.6117 8.54371 27.6099 8.53287 27.6055C8.52202 27.601 8.50846 27.5965 8.49309 27.5912C8.47682 27.5858 8.45875 27.5805 8.43886 27.576C8.41807 27.5716 8.39457 27.5689 8.36745 27.5689C8.29153 27.5689 8.23729 27.5948 8.20656 27.6465C8.17492 27.6982 8.15865 27.7812 8.15865 27.8945V28.0453H8.4705C8.47863 28.0453 8.48587 28.0471 8.49219 28.0507C8.49852 28.0542 8.50304 28.0605 8.50846 28.0685C8.51298 28.0774 8.5166 28.0881 8.5184 28.1015C8.52021 28.114 8.52111 28.1301 8.52111 28.1497C8.52111 28.1872 8.5166 28.213 8.50846 28.2291C8.49942 28.2452 8.48677 28.2532 8.4705 28.2532H8.15865V29.4523C8.15865 29.4604 8.15684 29.4675 8.15232 29.4728C8.14781 29.4782 8.14057 29.4835 8.13153 29.4871C8.12159 29.4907 8.10893 29.4943 8.09176 29.496C8.07549 29.4978 8.0547 29.4987 8.03029 29.4987C8.00498 29.4987 7.9851 29.4978 7.96883 29.496C7.95256 29.4943 7.9399 29.4907 7.92996 29.4871C7.92002 29.4827 7.91369 29.4773 7.90917 29.4728C7.90465 29.4675 7.90285 29.4604 7.90285 29.4523V28.2532H7.28096V29.4523C7.28096 29.4604 7.27915 29.4675 7.27463 29.4728C7.27011 29.4782 7.26378 29.4835 7.25384 29.4871C7.2439 29.4907 7.23125 29.4943 7.21497 29.496C7.1987 29.4978 7.17791 29.4987 7.1535 29.4987C7.12819 29.4987 7.10831 29.4978 7.09204 29.496C7.07577 29.4943 7.06221 29.4907 7.05227 29.4871C7.04323 29.4827 7.036 29.4773 7.03148 29.4728C7.02696 29.4675 7.02515 29.4604 7.02515 29.4523V28.2532H6.8281C6.81183 28.2532 6.79918 28.2443 6.79104 28.2291C6.782 28.213 6.77839 28.1863 6.77839 28.1497C6.77839 28.1301 6.77929 28.114 6.7811 28.1015C6.7829 28.0881 6.78652 28.0774 6.79104 28.0685C6.79466 28.0596 6.80008 28.0542 6.80641 28.0507C6.81274 28.0471 6.81997 28.0453 6.8281 28.0453H7.02515V27.9159C7.02515 27.8214 7.03509 27.7402 7.05317 27.6733C7.07125 27.6055 7.09927 27.5501 7.13543 27.5064C7.17249 27.4627 7.21859 27.4306 7.27373 27.4101C7.32796 27.3887 7.39214 27.3788 7.46445 27.3788C7.50964 27.3788 7.54942 27.3824 7.58286 27.3904C7.6163 27.3976 7.64433 27.4065 7.66602 27.4154C7.67597 27.4199 7.685 27.4243 7.69042 27.4306C7.69675 27.4359 7.70128 27.4449 7.70579 27.4538C7.70941 27.4636 7.71302 27.4752 7.71483 27.4895C7.71664 27.5029 7.71664 27.5189 7.71664 27.5385C7.71664 27.5707 7.71393 27.5947 7.7085 27.609C7.70398 27.6242 7.69495 27.6313 7.68139 27.6313C7.67325 27.6313 7.66331 27.6295 7.65337 27.6242C7.64252 27.6197 7.62896 27.6144 7.61269 27.6081C7.59642 27.6028 7.57834 27.5974 7.55755 27.593C7.53676 27.5885 7.51326 27.5858 7.48705 27.5858C7.41112 27.5858 7.3587 27.6117 7.32706 27.6634C7.29633 27.7152 7.28096 27.7982 7.28096 27.9115V28.0435H7.90285V27.8954C7.90285 27.8017 7.91188 27.7205 7.93087 27.6527C7.94985 27.5849 7.97877 27.5296 8.01493 27.485C8.05199 27.4413 8.09809 27.4092 8.15323 27.3887C8.20746 27.3672 8.27254 27.3574 8.34486 27.3574C8.38915 27.3574 8.42892 27.361 8.46236 27.369C8.49762 27.3771 8.52473 27.3851 8.54643 27.394C8.55546 27.3985 8.5636 27.4029 8.57083 27.4101C8.57716 27.4154 8.58258 27.4243 8.5862 27.4333C8.58981 27.4431 8.59252 27.4547 8.59433 27.4689C8.59704 27.485 8.59704 27.5011 8.59704 27.5207ZM9.72421 29.4559C9.72421 29.4684 9.7197 29.4773 9.71247 29.4836C9.70433 29.4898 9.69258 29.4934 9.67812 29.4969C9.66366 29.5005 9.64286 29.5014 9.61484 29.5014C9.58863 29.5014 9.56693 29.4996 9.55066 29.4969C9.53439 29.4943 9.52355 29.4898 9.51631 29.4836C9.50908 29.4773 9.50547 29.4684 9.50547 29.4559V29.3194C9.44491 29.3827 9.37711 29.4327 9.30299 29.4684C9.22797 29.5032 9.14933 29.521 9.06617 29.521C8.99296 29.521 8.92697 29.5121 8.86822 29.4934C8.80856 29.4746 8.75885 29.447 8.71727 29.4113C8.67569 29.3756 8.64314 29.3319 8.62055 29.281C8.59704 29.2293 8.58529 29.1704 8.58529 29.1044C8.58529 29.0267 8.60066 28.9598 8.6332 28.9036C8.66484 28.8465 8.71093 28.7992 8.77059 28.7618C8.83025 28.7243 8.90347 28.6957 8.99024 28.677C9.07611 28.6583 9.17374 28.6484 9.2813 28.6484H9.47293V28.5414C9.47293 28.4887 9.4666 28.4423 9.45575 28.4013C9.444 28.3612 9.42593 28.3273 9.40062 28.3005C9.37531 28.2737 9.34277 28.2532 9.30299 28.2398C9.26322 28.2255 9.21351 28.2193 9.15475 28.2193C9.09238 28.2193 9.03634 28.2264 8.98663 28.2416C8.93691 28.2568 8.89352 28.2728 8.85556 28.2907C8.8185 28.3085 8.78687 28.3255 8.76156 28.3397C8.73625 28.3549 8.71817 28.362 8.70551 28.362C8.69738 28.362 8.68925 28.3603 8.68382 28.3558C8.67749 28.3522 8.67207 28.346 8.66755 28.338C8.66303 28.3299 8.65941 28.3201 8.6576 28.3076C8.6558 28.2942 8.6549 28.2809 8.6549 28.2657C8.6549 28.2407 8.6558 28.2202 8.66032 28.2059C8.66393 28.1916 8.67297 28.1774 8.68653 28.164C8.70009 28.1515 8.72449 28.1354 8.75794 28.1176C8.79138 28.0997 8.83116 28.0837 8.87545 28.0685C8.91884 28.0542 8.96764 28.0417 9.02007 28.031C9.0725 28.0212 9.12583 28.0168 9.17826 28.0168C9.27768 28.0168 9.36265 28.0275 9.43225 28.0498C9.50185 28.0721 9.5588 28.1051 9.60128 28.1488C9.64467 28.1916 9.67541 28.2452 9.69529 28.3094C9.71518 28.3736 9.72512 28.4486 9.72512 28.5333V29.4559H9.72421ZM9.47202 28.8287H9.25419C9.18458 28.8287 9.12402 28.834 9.0725 28.8465C9.02188 28.8572 8.97939 28.8751 8.94505 28.8983C8.9116 28.9206 8.8863 28.9482 8.87003 28.9803C8.85466 29.0125 8.84652 29.0499 8.84652 29.091C8.84652 29.1624 8.86912 29.2186 8.91522 29.2605C8.96132 29.3024 9.02459 29.3238 9.10685 29.3238C9.17283 29.3238 9.2352 29.3069 9.29215 29.273C9.34909 29.24 9.40875 29.1882 9.47202 29.1195V28.8287ZM11.3178 29.9975C11.3178 30.0064 11.316 30.0126 11.3106 30.0189C11.3061 30.0251 11.2988 30.0305 11.2898 30.034C11.2807 30.0376 11.2681 30.0412 11.2509 30.043C11.2346 30.0448 11.2139 30.0456 11.1894 30.0456C11.1632 30.0456 11.1433 30.0448 11.1271 30.043C11.1108 30.0412 11.0982 30.0376 11.0882 30.034C11.0774 30.0296 11.071 30.0251 11.0674 30.0189C11.0638 30.0126 11.062 30.0064 11.062 29.9975V29.2944C11.0195 29.3363 10.9797 29.3711 10.9418 29.4006C10.9029 29.43 10.8658 29.4532 10.8288 29.4711C10.7917 29.4889 10.7547 29.5014 10.7167 29.5085C10.6787 29.5166 10.6408 29.5201 10.601 29.5201C10.4998 29.5201 10.4139 29.5005 10.3434 29.4612C10.2729 29.4229 10.2141 29.3693 10.1698 29.3033C10.1256 29.2364 10.093 29.1588 10.0722 29.0696C10.0514 28.9795 10.0415 28.8849 10.0415 28.7858C10.0415 28.6681 10.0541 28.561 10.0804 28.4664C10.1066 28.3719 10.1445 28.2907 10.1951 28.2238C10.2467 28.1568 10.309 28.106 10.3832 28.0694C10.4582 28.0337 10.5441 28.0159 10.6417 28.0159C10.6833 28.0159 10.7212 28.0203 10.7565 28.0284C10.7926 28.0364 10.8279 28.0507 10.864 28.0694C10.8993 28.0881 10.9354 28.1122 10.9725 28.1426C11.0087 28.172 11.0484 28.2077 11.0918 28.2496V28.0846C11.0918 28.0748 11.0936 28.0676 11.0981 28.0623C11.1027 28.0569 11.109 28.0516 11.118 28.048C11.128 28.0444 11.1388 28.0409 11.1542 28.04C11.1687 28.0382 11.1867 28.0373 11.2075 28.0373C11.2283 28.0373 11.2455 28.0382 11.26 28.04C11.2735 28.0409 11.2862 28.0444 11.2943 28.0489C11.3033 28.0525 11.3088 28.0578 11.3124 28.0632C11.316 28.0685 11.3178 28.0757 11.3178 28.0855V29.9975ZM11.062 28.4896C10.9933 28.4049 10.9273 28.3406 10.8631 28.296C10.799 28.2523 10.7321 28.2291 10.6634 28.2291C10.5983 28.2291 10.5431 28.2443 10.498 28.2746C10.4528 28.3049 10.4166 28.3451 10.3877 28.3951C10.3597 28.4441 10.3389 28.5012 10.3262 28.5637C10.3136 28.6261 10.3072 28.6904 10.3072 28.7555C10.3072 28.8251 10.3127 28.8938 10.3235 28.9598C10.3343 29.0258 10.3533 29.0847 10.3795 29.1356C10.4067 29.1856 10.4419 29.2266 10.4862 29.2578C10.5305 29.2882 10.5856 29.3042 10.6516 29.3042C10.6851 29.3042 10.7176 29.2998 10.7492 29.2908C10.78 29.281 10.8125 29.2667 10.8451 29.2453C10.8776 29.2239 10.9129 29.1972 10.9481 29.1624C10.9843 29.1285 11.0222 29.0874 11.062 29.0374V28.4896ZM11.984 29.4541C11.984 29.4621 11.9822 29.4693 11.9777 29.4746C11.9731 29.48 11.9668 29.4853 11.9578 29.4889C11.9478 29.4925 11.9361 29.496 11.9189 29.4978C11.9026 29.4996 11.8818 29.5005 11.8556 29.5005C11.8303 29.5005 11.8104 29.4996 11.7942 29.4978C11.777 29.496 11.7643 29.4925 11.7544 29.4889C11.7444 29.4844 11.7372 29.4791 11.7336 29.4746C11.73 29.4693 11.7282 29.4621 11.7282 29.4541V28.0846C11.7282 28.0774 11.7291 28.0703 11.7336 28.0649C11.7372 28.0587 11.7444 28.0533 11.7544 28.0498C11.7634 28.0462 11.777 28.0426 11.7942 28.0409C11.8104 28.0391 11.8312 28.0373 11.8556 28.0373C11.8818 28.0373 11.9026 28.0382 11.9189 28.0409C11.9361 28.0426 11.9478 28.0462 11.9578 28.0498C11.9668 28.0542 11.974 28.0587 11.9777 28.0649C11.9813 28.0703 11.984 28.0774 11.984 28.0846V29.4541ZM12.0129 27.6224C12.0129 27.6813 12.0012 27.7214 11.9786 27.7429C11.956 27.7643 11.9144 27.775 11.8529 27.775C11.7933 27.775 11.7517 27.7652 11.73 27.7437C11.7083 27.7223 11.6965 27.6831 11.6965 27.6251C11.6965 27.5662 11.7083 27.5261 11.7309 27.5046C11.7535 27.4832 11.7951 27.4725 11.8565 27.4725C11.9162 27.4725 11.9569 27.4832 11.9795 27.5037C12.0012 27.5252 12.0129 27.5644 12.0129 27.6224ZM13.0235 29.4925L12.8391 29.9966C12.8327 30.0126 12.8174 30.0251 12.7921 30.034C12.7668 30.043 12.7288 30.0465 12.6773 30.0465C12.6502 30.0465 12.6285 30.0456 12.6131 30.043C12.5959 30.0403 12.5842 30.0358 12.5751 30.0296C12.567 30.0233 12.5625 30.0153 12.5616 30.0055C12.5607 29.9957 12.5634 29.9832 12.5688 29.9689L12.7604 29.4925C12.7514 29.488 12.7424 29.4809 12.7342 29.4728C12.7252 29.463 12.7198 29.4541 12.717 29.4434L12.2217 28.1345C12.2136 28.1131 12.21 28.0962 12.21 28.0846C12.21 28.0721 12.2136 28.0623 12.2217 28.0551C12.2307 28.048 12.2434 28.0435 12.2624 28.0409C12.2805 28.0382 12.3058 28.0373 12.3365 28.0373C12.3672 28.0373 12.3907 28.0382 12.4088 28.04C12.426 28.0409 12.4405 28.0444 12.4504 28.0489C12.4603 28.0525 12.4676 28.0587 12.473 28.0658C12.4775 28.0739 12.482 28.0837 12.4875 28.0971L12.8834 29.1963H12.8879L13.2702 28.0917C13.2766 28.0721 13.2838 28.0596 13.2928 28.0542C13.3019 28.0489 13.3145 28.0444 13.3317 28.0417C13.3498 28.0391 13.3751 28.0382 13.4076 28.0382C13.4366 28.0382 13.4601 28.0391 13.4781 28.0417C13.4971 28.0444 13.5107 28.0489 13.5188 28.056C13.5279 28.0632 13.5315 28.073 13.5315 28.0855C13.5315 28.0971 13.5288 28.1131 13.5224 28.131L13.0235 29.4925ZM14.7581 29.4559C14.7581 29.4684 14.7535 29.4773 14.7454 29.4836C14.7373 29.4898 14.7264 29.4934 14.712 29.4969C14.6975 29.5005 14.6767 29.5014 14.6487 29.5014C14.6225 29.5014 14.6008 29.4996 14.5854 29.4969C14.5691 29.4943 14.5583 29.4898 14.5502 29.4836C14.5429 29.4773 14.5393 29.4684 14.5393 29.4559V29.3194C14.4788 29.3827 14.411 29.4327 14.3368 29.4684C14.2618 29.5032 14.1832 29.521 14.1 29.521C14.0268 29.521 13.9608 29.5121 13.9021 29.4934C13.8433 29.4746 13.7927 29.447 13.7511 29.4113C13.7095 29.3756 13.677 29.3319 13.6544 29.281C13.6309 29.2293 13.6191 29.1704 13.6191 29.1044C13.6191 29.0267 13.6354 28.9598 13.6671 28.9036C13.6987 28.8465 13.7448 28.7992 13.8044 28.7618C13.8641 28.7243 13.9373 28.6957 14.0232 28.677C14.11 28.6583 14.2067 28.6484 14.3142 28.6484H14.5059V28.5414C14.5059 28.4887 14.5005 28.4423 14.4887 28.4013C14.4779 28.3612 14.4598 28.3273 14.4345 28.3005C14.4092 28.2737 14.3766 28.2532 14.3368 28.2398C14.2962 28.2255 14.2474 28.2193 14.1886 28.2193C14.1262 28.2193 14.0693 28.2264 14.0196 28.2416C13.9699 28.2568 13.9265 28.2728 13.8885 28.2907C13.8514 28.3085 13.8198 28.3255 13.7945 28.3397C13.7701 28.3549 13.7511 28.362 13.7385 28.362C13.7303 28.362 13.7231 28.3603 13.7168 28.3558C13.7104 28.3522 13.705 28.346 13.7005 28.338C13.696 28.3299 13.6924 28.3201 13.6905 28.3076C13.6887 28.2942 13.6869 28.2809 13.6869 28.2657C13.6869 28.2407 13.6887 28.2202 13.6924 28.2059C13.696 28.1916 13.705 28.1774 13.7186 28.164C13.7321 28.1515 13.7565 28.1354 13.79 28.1176C13.8234 28.0997 13.8623 28.0837 13.9075 28.0685C13.9509 28.0542 13.9997 28.0417 14.0521 28.031C14.1036 28.0212 14.157 28.0168 14.2103 28.0168C14.3097 28.0168 14.3947 28.0275 14.4643 28.0498C14.5339 28.0721 14.5899 28.1051 14.6333 28.1488C14.6767 28.1916 14.7074 28.2452 14.7273 28.3094C14.7463 28.3736 14.7572 28.4486 14.7572 28.5333V29.4559H14.7581ZM14.5059 28.8287H14.2889C14.2193 28.8287 14.1588 28.834 14.1073 28.8465C14.0557 28.8572 14.0132 28.8751 13.9789 28.8983C13.9445 28.9206 13.9201 28.9482 13.9039 28.9803C13.8876 29.0125 13.8804 29.0499 13.8804 29.091C13.8804 29.1624 13.903 29.2186 13.9491 29.2605C13.9952 29.3024 14.0584 29.3238 14.1407 29.3238C14.2067 29.3238 14.2691 29.3069 14.326 29.273C14.3829 29.24 14.4426 29.1882 14.505 29.1195V28.8287H14.5059ZM15.8554 29.3524C15.8554 29.3818 15.8536 29.405 15.8491 29.4229C15.8455 29.4398 15.8391 29.4532 15.8301 29.4604C15.822 29.4693 15.8102 29.4764 15.7939 29.4836C15.7777 29.4907 15.7587 29.496 15.7379 29.5014C15.7162 29.5059 15.6945 29.5094 15.671 29.5121C15.6475 29.5148 15.6249 29.5166 15.6005 29.5166C15.5282 29.5166 15.4667 29.5067 15.4161 29.488C15.3655 29.4693 15.323 29.4407 15.2896 29.4024C15.257 29.3649 15.2335 29.3167 15.2182 29.2578C15.2037 29.1998 15.1965 29.1311 15.1965 29.0526V28.2541H15.0012C14.9858 28.2541 14.9732 28.2452 14.9633 28.23C14.9542 28.2139 14.9497 28.1872 14.9497 28.1506C14.9497 28.131 14.9506 28.1149 14.9533 28.1024C14.956 28.089 14.9596 28.0783 14.9633 28.0694C14.9678 28.0605 14.9732 28.0551 14.9795 28.0516C14.9868 28.048 14.994 28.0462 15.0021 28.0462H15.1956V27.7206C15.1956 27.7134 15.1974 27.7063 15.201 27.7009C15.2046 27.6947 15.2118 27.6893 15.2218 27.6849C15.2308 27.6804 15.2444 27.6768 15.2615 27.675C15.2778 27.6733 15.2986 27.6724 15.323 27.6724C15.3492 27.6724 15.37 27.6733 15.3863 27.675C15.4035 27.6768 15.4152 27.6804 15.4251 27.6849C15.4342 27.6893 15.4414 27.6947 15.445 27.7009C15.4496 27.7063 15.4514 27.7134 15.4514 27.7206V28.0462H15.8048C15.8138 28.0462 15.8202 28.048 15.8265 28.0516C15.8328 28.0551 15.8382 28.0614 15.8427 28.0694C15.8473 28.0783 15.8509 28.089 15.8527 28.1024C15.8545 28.1149 15.8554 28.131 15.8554 28.1506C15.8554 28.1881 15.8509 28.2139 15.8418 28.23C15.8319 28.2461 15.8202 28.2541 15.8048 28.2541H15.4514V29.016C15.4514 29.1097 15.4658 29.1811 15.4938 29.2293C15.5219 29.2775 15.5725 29.3015 15.6448 29.3015C15.6674 29.3015 15.6891 29.2998 15.7072 29.2944C15.7252 29.2899 15.7415 29.2846 15.756 29.2801C15.7704 29.2748 15.7822 29.2703 15.793 29.2659C15.803 29.2614 15.8129 29.2587 15.8202 29.2587C15.8256 29.2587 15.8301 29.2596 15.8346 29.2623C15.8382 29.265 15.8428 29.2694 15.8446 29.2766C15.8473 29.2837 15.8491 29.2935 15.8518 29.3051C15.8545 29.3185 15.8554 29.3337 15.8554 29.3524ZM17.9823 28.081C17.9823 28.0855 17.9823 28.0899 17.9823 28.0944C17.9814 28.0988 17.9805 28.1033 17.9796 28.1087C17.9787 28.114 17.9769 28.1185 17.9751 28.1247C17.9742 28.131 17.9724 28.1372 17.9696 28.1443L17.4969 29.4452C17.4933 29.4568 17.487 29.4657 17.4806 29.4728C17.4743 29.48 17.4644 29.4862 17.4508 29.4898C17.4372 29.4943 17.4201 29.4969 17.4002 29.4987C17.3794 29.5005 17.3541 29.5005 17.3224 29.5005C17.2917 29.5005 17.2664 29.4996 17.2456 29.4978C17.2248 29.496 17.2076 29.4925 17.195 29.4889C17.1823 29.4844 17.1715 29.4791 17.1652 29.472C17.1579 29.4648 17.1525 29.4559 17.148 29.4461L16.6762 28.1452C16.6716 28.1328 16.6689 28.122 16.6662 28.1131C16.6635 28.1042 16.6626 28.0971 16.6617 28.0926C16.6617 28.0881 16.6617 28.0846 16.6617 28.081C16.6617 28.073 16.6635 28.0658 16.668 28.0596C16.6716 28.0533 16.6789 28.0489 16.6888 28.0453C16.6978 28.0417 16.7114 28.04 16.7268 28.0382C16.7421 28.0373 16.762 28.0364 16.7864 28.0364C16.8163 28.0364 16.8407 28.0373 16.8578 28.0391C16.8759 28.04 16.8904 28.0435 16.8994 28.048C16.9094 28.0516 16.9166 28.0569 16.9211 28.0632C16.9256 28.0694 16.9301 28.0765 16.9347 28.0855L17.3261 29.215L17.3324 29.2337L17.3369 29.215L17.7238 28.0855C17.7265 28.0765 17.7301 28.0685 17.7355 28.0632C17.74 28.0569 17.7482 28.0516 17.7572 28.048C17.7672 28.0435 17.7807 28.0409 17.7979 28.0391C17.8151 28.0373 17.8377 28.0364 17.8648 28.0364C17.8883 28.0364 17.9082 28.0373 17.9235 28.0382C17.9389 28.0391 17.9507 28.0417 17.9597 28.0462C17.9687 28.0498 17.9742 28.0551 17.9778 28.0605C17.9805 28.0658 17.9823 28.073 17.9823 28.081Z" fill="#1D1D1B"/>
<path d="M19.2092 29.4562C19.2092 29.4687 19.2056 29.4776 19.1975 29.4839C19.1884 29.4901 19.1776 29.4937 19.1631 29.4973C19.1487 29.5008 19.1279 29.5017 19.0999 29.5017C19.0736 29.5017 19.052 29.4999 19.0366 29.4973C19.0212 29.4946 19.0095 29.4901 19.0022 29.4839C18.995 29.4776 18.9914 29.4687 18.9914 29.4562V29.3197C18.9308 29.3831 18.863 29.433 18.7889 29.4687C18.7139 29.5035 18.6353 29.5214 18.5521 29.5214C18.4789 29.5214 18.4129 29.5124 18.3532 29.4937C18.2945 29.475 18.2439 29.4473 18.2023 29.4116C18.1607 29.3759 18.1282 29.3322 18.1047 29.2813C18.0812 29.2296 18.0703 29.1707 18.0703 29.1047C18.0703 29.0271 18.0857 28.9602 18.1182 28.9039C18.1499 28.8468 18.196 28.7996 18.2556 28.7621C18.3153 28.7246 18.3885 28.6961 18.4744 28.6773C18.5611 28.6586 18.6579 28.6488 18.7654 28.6488H18.957V28.5417C18.957 28.4891 18.9516 28.4427 18.9399 28.4016C18.9281 28.3615 18.91 28.3276 18.8856 28.3008C18.8603 28.2741 18.8278 28.2535 18.7871 28.2401C18.7473 28.2259 18.6976 28.2196 18.6398 28.2196C18.5774 28.2196 18.5205 28.2268 18.4716 28.2419C18.4219 28.2571 18.3776 28.2732 18.3406 28.291C18.3035 28.3088 18.2719 28.3258 18.2466 28.3401C18.2222 28.3552 18.2032 28.3624 18.1905 28.3624C18.1824 28.3624 18.1743 28.3606 18.1688 28.3561C18.1625 28.3526 18.1571 28.3463 18.1526 28.3383C18.148 28.3303 18.1444 28.3204 18.1426 28.308C18.1408 28.2946 18.1399 28.2812 18.1399 28.266C18.1399 28.241 18.1417 28.2205 18.1453 28.2062C18.149 28.192 18.158 28.1777 18.1715 28.1643C18.1851 28.1518 18.2095 28.1358 18.243 28.1179C18.2764 28.1001 18.3162 28.084 18.3605 28.0688C18.4039 28.0546 18.4527 28.0421 18.5051 28.0314C18.5575 28.0216 18.6108 28.0171 18.6633 28.0171C18.7627 28.0171 18.8477 28.0278 18.9173 28.0501C18.9869 28.0724 19.0429 28.1054 19.0863 28.1491C19.1297 28.192 19.1604 28.2455 19.1803 28.3097C19.1993 28.374 19.2092 28.4489 19.2092 28.5337V29.4562ZM18.957 28.829H18.7392C18.6696 28.829 18.6099 28.8344 18.5584 28.8468C18.5069 28.8576 18.4644 28.8754 18.4301 28.8986C18.3966 28.9209 18.3713 28.9486 18.355 28.9807C18.3397 29.0128 18.3315 29.0503 18.3315 29.0913C18.3315 29.1627 18.3541 29.2189 18.4002 29.2608C18.4454 29.3028 18.5096 29.3242 18.5919 29.3242C18.6579 29.3242 18.7202 29.3072 18.7763 29.2733C18.8332 29.2403 18.8929 29.1886 18.9561 29.1199V28.829H18.957ZM22.5266 29.4527C22.5266 29.4607 22.5248 29.4678 22.5202 29.4741C22.5157 29.4803 22.5085 29.4848 22.4976 29.4883C22.4868 29.4919 22.4732 29.4955 22.457 29.4973C22.4407 29.4999 22.419 29.5008 22.3928 29.5008C22.3684 29.5008 22.3467 29.4999 22.3295 29.4973C22.3123 29.4946 22.2988 29.4919 22.2879 29.4883C22.278 29.4848 22.2708 29.4794 22.2662 29.4741C22.2617 29.4687 22.2599 29.4607 22.2599 29.4527V27.7378H22.2563L21.554 29.4607C21.5513 29.4678 21.5467 29.4732 21.5413 29.4794C21.5359 29.4848 21.5278 29.4883 21.5169 29.4928C21.5061 29.4964 21.4934 29.499 21.478 29.5008C21.4636 29.5026 21.4455 29.5026 21.4247 29.5026C21.403 29.5026 21.3849 29.5017 21.3696 29.4999C21.3542 29.4982 21.3415 29.4955 21.3316 29.4919C21.3217 29.4883 21.3135 29.4848 21.3072 29.4794C21.3018 29.4741 21.2982 29.4696 21.2954 29.4625L20.6229 27.7396H20.622V29.4544C20.622 29.4625 20.6202 29.4696 20.6157 29.4759C20.6112 29.4821 20.604 29.4866 20.594 29.4901C20.5841 29.4937 20.5696 29.4973 20.5524 29.499C20.5353 29.5017 20.5145 29.5026 20.4883 29.5026C20.462 29.5026 20.4413 29.5017 20.425 29.499C20.4078 29.4964 20.3952 29.4937 20.3843 29.4901C20.3744 29.4866 20.3671 29.4812 20.3635 29.4759C20.3599 29.4705 20.3572 29.4625 20.3572 29.4544V27.6433C20.3572 27.6004 20.3689 27.5701 20.3915 27.5523C20.415 27.5344 20.4404 27.5246 20.4684 27.5246H20.6311C20.6645 27.5246 20.6934 27.5273 20.7188 27.5344C20.7441 27.5398 20.7658 27.5496 20.7847 27.563C20.8037 27.5764 20.8191 27.5933 20.8308 27.6129C20.8435 27.6335 20.8543 27.6566 20.8643 27.6843L21.4346 29.11H21.4428L22.0348 27.6879C22.0466 27.6575 22.0593 27.6317 22.0728 27.6103C22.0864 27.5888 22.1008 27.5719 22.1171 27.5594C22.1334 27.5469 22.1514 27.538 22.1704 27.5317C22.1903 27.5264 22.2138 27.5237 22.2391 27.5237H22.41C22.4253 27.5237 22.4407 27.5255 22.4543 27.5308C22.4678 27.5353 22.4805 27.5424 22.4904 27.5523C22.5004 27.5621 22.5085 27.5737 22.5148 27.5888C22.5211 27.6031 22.5239 27.6218 22.5239 27.6424V29.4527H22.5266ZM24.0126 29.4562C24.0126 29.4687 24.0081 29.4776 24.0008 29.4839C23.9918 29.4901 23.9809 29.4937 23.9665 29.4973C23.952 29.5008 23.9312 29.5017 23.9032 29.5017C23.877 29.5017 23.8553 29.4999 23.8399 29.4973C23.8237 29.4946 23.8128 29.4901 23.8047 29.4839C23.7975 29.4776 23.7938 29.4687 23.7938 29.4562V29.3197C23.7333 29.3831 23.6655 29.433 23.5914 29.4687C23.5163 29.5035 23.4377 29.5214 23.3545 29.5214C23.2813 29.5214 23.2153 29.5124 23.1566 29.4937C23.0969 29.475 23.0472 29.4473 23.0056 29.4116C22.9641 29.3759 22.9315 29.3322 22.9089 29.2813C22.8854 29.2296 22.8737 29.1707 22.8737 29.1047C22.8737 29.0271 22.889 28.9602 22.9216 28.9039C22.9532 28.8468 22.9993 28.7996 23.059 28.7621C23.1186 28.7246 23.1918 28.6961 23.2786 28.6773C23.3645 28.6586 23.4621 28.6488 23.5697 28.6488H23.7613V28.5417C23.7613 28.4891 23.755 28.4427 23.7441 28.4016C23.7324 28.3615 23.7143 28.3276 23.689 28.3008C23.6637 28.2741 23.6311 28.2535 23.5914 28.2401C23.5516 28.2259 23.5019 28.2196 23.4431 28.2196C23.3808 28.2196 23.3247 28.2268 23.275 28.2419C23.2253 28.2571 23.181 28.2732 23.1439 28.291C23.1069 28.3088 23.0752 28.3258 23.0499 28.3401C23.0246 28.3552 23.0065 28.3624 22.9939 28.3624C22.9848 28.3624 22.9776 28.3606 22.9722 28.3561C22.9659 28.3526 22.9604 28.3463 22.9559 28.3383C22.9514 28.3303 22.9478 28.3204 22.946 28.308C22.9442 28.2946 22.9433 28.2812 22.9433 28.266C22.9433 28.241 22.9442 28.2205 22.9487 28.2062C22.9523 28.192 22.9613 28.1777 22.9749 28.1643C22.9885 28.1518 23.0129 28.1358 23.0463 28.1179C23.0798 28.1001 23.1195 28.084 23.1638 28.0688C23.2072 28.0546 23.256 28.0421 23.3084 28.0314C23.3609 28.0216 23.4133 28.0171 23.4666 28.0171C23.5661 28.0171 23.651 28.0278 23.7206 28.0501C23.7902 28.0724 23.8472 28.1054 23.8897 28.1491C23.933 28.192 23.9638 28.2455 23.9837 28.3097C24.0035 28.374 24.0135 28.4489 24.0135 28.5337V29.4562H24.0126ZM23.7604 28.829H23.5426C23.473 28.829 23.4124 28.8344 23.3609 28.8468C23.3103 28.8576 23.2669 28.8754 23.2334 28.8986C23.2 28.9209 23.1747 28.9486 23.1584 28.9807C23.1421 29.0128 23.1349 29.0503 23.1349 29.0913C23.1349 29.1627 23.1575 29.2189 23.2027 29.2608C23.2488 29.3028 23.3121 29.3242 23.3952 29.3242C23.4612 29.3242 23.5236 29.3072 23.5805 29.2733C23.6375 29.2403 23.6971 29.1886 23.7604 29.1199V28.829ZM25.5782 28.1483C25.5782 28.1839 25.5736 28.2089 25.5637 28.2259C25.5547 28.241 25.542 28.2491 25.5257 28.2491H25.326C25.3621 28.2857 25.3874 28.3249 25.4019 28.3686C25.4164 28.4123 25.4236 28.4578 25.4236 28.5051C25.4236 28.5845 25.4109 28.6541 25.3856 28.7148C25.3594 28.7755 25.3233 28.8272 25.2753 28.8691C25.2274 28.912 25.1705 28.9441 25.1045 28.9664C25.0385 28.9887 24.9653 28.9994 24.8858 28.9994C24.8297 28.9994 24.7746 28.9923 24.7249 28.978C24.6742 28.9628 24.6345 28.945 24.6065 28.9227C24.5893 28.9414 24.5748 28.9619 24.5631 28.9851C24.5522 29.0092 24.5459 29.036 24.5459 29.0663C24.5459 29.102 24.5631 29.1315 24.5956 29.1547C24.6291 29.1787 24.6742 29.1912 24.7285 29.193L25.09 29.2082C25.1587 29.21 25.222 29.2198 25.279 29.2358C25.3368 29.2528 25.3865 29.2769 25.4281 29.3081C25.4706 29.3385 25.5031 29.3768 25.5266 29.4214C25.5501 29.4669 25.5619 29.5187 25.5619 29.5785C25.5619 29.6409 25.5492 29.7007 25.5221 29.7578C25.4959 29.8149 25.4543 29.864 25.4001 29.9068C25.3449 29.9496 25.2744 29.9844 25.1895 30.0085C25.1045 30.0335 25.0042 30.046 24.8876 30.046C24.7755 30.046 24.6797 30.037 24.6019 30.0183C24.5233 29.9996 24.4591 29.9737 24.4085 29.9416C24.3588 29.9095 24.3217 29.8711 24.2991 29.8256C24.2765 29.7801 24.2657 29.731 24.2657 29.6784C24.2657 29.6445 24.2702 29.6124 24.2774 29.5802C24.2865 29.549 24.2982 29.5196 24.3154 29.491C24.3317 29.4625 24.3534 29.4357 24.3787 29.4098C24.404 29.384 24.4329 29.3581 24.4663 29.3331C24.4166 29.3081 24.3796 29.276 24.3552 29.2367C24.3317 29.1984 24.319 29.1573 24.319 29.1118C24.319 29.0503 24.3317 28.995 24.357 28.9459C24.3823 28.8977 24.413 28.854 24.451 28.8147C24.4193 28.7773 24.394 28.7353 24.376 28.688C24.3579 28.6407 24.3488 28.5836 24.3488 28.5167C24.3488 28.4391 24.3615 28.3686 24.3886 28.3071C24.4157 28.2455 24.4519 28.1929 24.4998 28.15C24.5468 28.1081 24.6037 28.0751 24.6697 28.0519C24.7357 28.0296 24.8089 28.018 24.8867 28.018C24.9291 28.018 24.968 28.0207 25.0051 28.0251C25.0412 28.0305 25.0756 28.0367 25.1072 28.0456H25.5266C25.5447 28.0456 25.5574 28.0537 25.5664 28.0706C25.5736 28.0885 25.5782 28.1143 25.5782 28.1483ZM25.1804 28.5078C25.1804 28.415 25.1551 28.3419 25.1027 28.2901C25.0512 28.2375 24.9771 28.2116 24.8821 28.2116C24.8324 28.2116 24.7899 28.2205 24.7529 28.2357C24.7167 28.2517 24.686 28.2741 24.6616 28.3026C24.6372 28.3312 24.62 28.3642 24.6083 28.4007C24.5965 28.4373 24.5902 28.4766 24.5902 28.5176C24.5902 28.6068 24.6164 28.6782 24.6679 28.73C24.7203 28.7817 24.7927 28.8076 24.8867 28.8076C24.9364 28.8076 24.9807 28.7996 25.0177 28.7844C25.0548 28.7683 25.0846 28.7469 25.109 28.7193C25.1334 28.6907 25.1515 28.6586 25.1624 28.6229C25.175 28.5854 25.1804 28.5471 25.1804 28.5078ZM25.307 29.5918C25.307 29.533 25.2826 29.4883 25.2338 29.4553C25.185 29.4241 25.119 29.4063 25.0358 29.4045L24.677 29.3929C24.6444 29.4187 24.6173 29.4419 24.5965 29.4651C24.5757 29.4883 24.5595 29.5098 24.5468 29.5303C24.5341 29.5508 24.526 29.5713 24.5215 29.5918C24.517 29.6124 24.5143 29.6329 24.5143 29.6534C24.5143 29.7194 24.5477 29.7694 24.6155 29.8024C24.6833 29.8363 24.7773 29.8533 24.8984 29.8533C24.9752 29.8533 25.0403 29.8461 25.0919 29.8318C25.1443 29.8167 25.185 29.7979 25.2166 29.773C25.2482 29.7489 25.2717 29.7212 25.2853 29.69C25.2997 29.6588 25.307 29.6257 25.307 29.5918ZM26.3076 27.4862C26.3076 27.5175 26.3067 27.546 26.3031 27.5719C26.3004 27.5978 26.2949 27.6227 26.2877 27.6459C26.2805 27.67 26.2705 27.6932 26.2588 27.7164C26.247 27.7387 26.2326 27.7628 26.2145 27.7869L26.0039 28.0992C25.9985 28.1063 25.993 28.1135 25.9858 28.1197C25.9786 28.1259 25.9713 28.1304 25.9605 28.134C25.9506 28.1375 25.9388 28.1402 25.9271 28.142C25.9144 28.1438 25.8981 28.1438 25.8782 28.1438C25.8611 28.1438 25.8466 28.1438 25.8349 28.142C25.8222 28.1402 25.8141 28.1375 25.8096 28.134C25.805 28.1304 25.8014 28.1259 25.8014 28.1197C25.8005 28.1135 25.8023 28.1063 25.8068 28.0965L26.0111 27.679V27.4862C26.0111 27.4595 26.0147 27.4381 26.0202 27.4229C26.0256 27.4068 26.0346 27.3934 26.0473 27.3845C26.059 27.3756 26.0753 27.3694 26.0934 27.3658C26.1115 27.3631 26.1341 27.3613 26.1612 27.3613C26.1865 27.3613 26.2082 27.3631 26.2281 27.3658C26.2461 27.3694 26.2615 27.3747 26.2724 27.3845C26.2841 27.3934 26.2931 27.4059 26.2986 27.4229C26.3058 27.4381 26.3076 27.4595 26.3076 27.4862ZM26.9557 29.4544C26.9557 29.4625 26.9539 29.4696 26.9494 29.475C26.9449 29.4803 26.9394 29.4857 26.9295 29.4892C26.9205 29.4928 26.9078 29.4964 26.8906 29.4982C26.8744 29.4999 26.8536 29.5008 26.8273 29.5008C26.802 29.5008 26.7813 29.4999 26.7659 29.4982C26.7487 29.4964 26.7361 29.4928 26.7261 29.4892C26.7162 29.4848 26.7089 29.4794 26.7053 29.475C26.7017 29.4696 26.6999 29.4625 26.6999 29.4544V27.422C26.6999 27.414 26.7017 27.4068 26.7053 27.4006C26.7089 27.3943 26.7162 27.389 26.7261 27.3854C26.7352 27.3818 26.7487 27.3783 26.7659 27.3765C26.7822 27.3747 26.8029 27.3729 26.8273 27.3729C26.8536 27.3729 26.8744 27.3738 26.8906 27.3765C26.9078 27.3783 26.9205 27.3818 26.9295 27.3854C26.9394 27.3899 26.9449 27.3943 26.9494 27.4006C26.9539 27.4059 26.9557 27.4131 26.9557 27.422V29.4544ZM28.5511 29.4544C28.5511 29.4625 28.5493 29.4696 28.5457 29.475C28.5421 29.4803 28.5357 29.4857 28.5258 29.4892C28.5168 29.4928 28.505 29.4964 28.4896 29.4982C28.4752 29.4999 28.4562 29.5008 28.4345 29.5008C28.411 29.5008 28.392 29.4999 28.3776 29.4982C28.3622 29.4964 28.3504 29.4928 28.3423 29.4892C28.3333 29.4848 28.3269 29.4794 28.3251 29.475C28.3215 29.4696 28.3197 29.4625 28.3197 29.4544V29.2733C28.2402 29.3599 28.1624 29.4223 28.0847 29.4616C28.0078 29.5008 27.9301 29.5205 27.8506 29.5205C27.7584 29.5205 27.6797 29.5053 27.6174 29.475C27.5541 29.4455 27.5026 29.4036 27.4646 29.3509C27.4248 29.2992 27.3977 29.2385 27.3805 29.1689C27.3634 29.0993 27.3552 29.0146 27.3552 28.9155V28.0849C27.3552 28.076 27.3561 28.0697 27.3607 28.0635C27.3643 28.0581 27.3706 28.0537 27.3814 28.0483C27.3914 28.0439 27.4049 28.0403 27.4212 28.0394C27.4375 28.0376 27.4583 28.0367 27.4827 28.0367C27.508 28.0367 27.5279 28.0376 27.5441 28.0394C27.5604 28.0403 27.574 28.0439 27.5839 28.0483C27.593 28.0528 27.6002 28.0581 27.6047 28.0635C27.6092 28.0688 27.611 28.076 27.611 28.0849V28.8825C27.611 28.9628 27.6165 29.0271 27.6291 29.0752C27.6409 29.1234 27.6589 29.1645 27.6824 29.1984C27.7069 29.2323 27.7376 29.259 27.7746 29.2778C27.8108 29.2965 27.8542 29.3063 27.9039 29.3063C27.9672 29.3063 28.0314 29.284 28.0946 29.2394C28.1579 29.1948 28.2248 29.1288 28.2962 29.0431V28.0858C28.2962 28.0769 28.2971 28.0706 28.3016 28.0644C28.3052 28.059 28.3116 28.0546 28.3224 28.0492C28.3324 28.0448 28.345 28.0412 28.3613 28.0403C28.3775 28.0385 28.3983 28.0376 28.4237 28.0376C28.4481 28.0376 28.4688 28.0385 28.4851 28.0403C28.5014 28.0412 28.5149 28.0448 28.524 28.0492C28.533 28.0537 28.5403 28.059 28.5448 28.0644C28.5502 28.0697 28.552 28.0769 28.552 28.0858V29.4544H28.5511ZM30.2378 28.7505C30.2378 28.8692 30.2251 28.9762 30.198 29.0708C30.1718 29.1663 30.1338 29.2474 30.0823 29.3135C30.0317 29.3804 29.9693 29.4321 29.8952 29.4669C29.822 29.5026 29.737 29.5205 29.6421 29.5205C29.5978 29.5205 29.5571 29.516 29.5192 29.5071C29.4821 29.4982 29.4451 29.4848 29.4098 29.4651C29.3746 29.4455 29.3384 29.4214 29.3022 29.392C29.2661 29.3625 29.229 29.3269 29.1884 29.2858V29.4544C29.1884 29.4625 29.1856 29.4696 29.182 29.4759C29.1775 29.4821 29.1721 29.4866 29.1621 29.4901C29.1531 29.4937 29.1413 29.4964 29.1269 29.4982C29.1124 29.4999 29.0952 29.5008 29.0736 29.5008C29.0528 29.5008 29.0347 29.4999 29.0211 29.4982C29.0067 29.4964 28.9949 29.4937 28.9859 29.4901C28.9768 29.4866 28.9705 29.4821 28.9678 29.4759C28.9642 29.4696 28.9633 29.4625 28.9633 29.4544V27.422C28.9633 27.414 28.9651 27.4068 28.9687 27.4006C28.9723 27.3943 28.9796 27.389 28.9895 27.3854C28.9985 27.3818 29.0121 27.3783 29.0293 27.3765C29.0455 27.3747 29.0663 27.3729 29.0916 27.3729C29.1169 27.3729 29.1377 27.3738 29.1549 27.3765C29.1721 27.3783 29.1838 27.3818 29.1938 27.3854C29.2028 27.3899 29.21 27.3943 29.2137 27.4006C29.2182 27.4059 29.22 27.4131 29.22 27.422V28.2401C29.2607 28.1991 29.3004 28.1634 29.3393 28.1349C29.3773 28.1072 29.4152 28.084 29.4523 28.0662C29.4894 28.0483 29.5264 28.0358 29.5635 28.0269C29.6005 28.0189 29.6394 28.0153 29.6801 28.0153C29.7813 28.0153 29.8663 28.0349 29.9386 28.0742C30.0091 28.1135 30.0678 28.167 30.1121 28.233C30.1564 28.299 30.1899 28.3775 30.2098 28.4668C30.2278 28.5569 30.2378 28.6506 30.2378 28.7505ZM29.972 28.779C29.972 28.7094 29.9666 28.6407 29.9558 28.5747C29.9458 28.5078 29.9268 28.4498 29.8997 28.399C29.8726 28.3481 29.8373 28.3071 29.7931 28.2767C29.7488 28.2455 29.6936 28.2294 29.6276 28.2294C29.5951 28.2294 29.5626 28.2339 29.5309 28.2428C29.4993 28.2526 29.4668 28.2678 29.4342 28.2892C29.4008 28.3106 29.3664 28.3383 29.3321 28.3722C29.2959 28.4052 29.2579 28.448 29.2182 28.4989V29.0449C29.2887 29.1297 29.3547 29.1939 29.4189 29.2385C29.4821 29.2822 29.549 29.3054 29.6186 29.3054C29.6819 29.3054 29.737 29.2903 29.7813 29.2599C29.8265 29.2296 29.8636 29.1895 29.8916 29.1386C29.9196 29.0886 29.9404 29.0324 29.9531 28.97C29.9657 28.9066 29.972 28.8433 29.972 28.779ZM30.8154 29.4544C30.8154 29.4625 30.8136 29.4696 30.8091 29.475C30.8045 29.4803 30.7982 29.4857 30.7892 29.4892C30.7792 29.4928 30.7675 29.4964 30.7503 29.4982C30.734 29.4999 30.7132 29.5008 30.687 29.5008C30.6617 29.5008 30.6418 29.4999 30.6256 29.4982C30.6084 29.4964 30.5948 29.4928 30.5858 29.4892C30.5758 29.4848 30.5686 29.4794 30.565 29.475C30.5614 29.4696 30.5596 29.4625 30.5596 29.4544V28.0849C30.5596 28.0778 30.5614 28.0706 30.565 28.0653C30.5686 28.059 30.5758 28.0537 30.5858 28.0501C30.5948 28.0465 30.6084 28.043 30.6256 28.0412C30.6418 28.0394 30.6626 28.0376 30.687 28.0376C30.7132 28.0376 30.734 28.0385 30.7503 28.0412C30.7675 28.043 30.7801 28.0465 30.7892 28.0501C30.7982 28.0546 30.8054 28.059 30.8091 28.0653C30.8136 28.0706 30.8154 28.0778 30.8154 28.0849V29.4544ZM30.8443 27.6227C30.8443 27.6816 30.8326 27.7218 30.81 27.7432C30.7874 27.7646 30.7458 27.7753 30.6843 27.7753C30.6247 27.7753 30.584 27.7655 30.5614 27.7441C30.5397 27.7227 30.5288 27.6834 30.5288 27.6254C30.5288 27.5665 30.5406 27.5264 30.5623 27.505C30.5849 27.4836 30.6265 27.4729 30.6879 27.4729C30.7476 27.4729 30.7883 27.4836 30.8109 27.5041C30.8335 27.5255 30.8443 27.5648 30.8443 27.6227ZM31.8549 29.4928L31.6705 29.9969C31.6641 30.013 31.6479 30.0254 31.6235 30.0344C31.5982 30.0433 31.5602 30.0469 31.5087 30.0469C31.4825 30.0469 31.4608 30.046 31.4436 30.0433C31.4273 30.0406 31.4147 30.0362 31.4056 30.0299C31.3975 30.0237 31.393 30.0156 31.3912 30.0058C31.3894 29.996 31.3921 29.9835 31.3984 29.9692L31.59 29.4928C31.581 29.4883 31.572 29.4812 31.5638 29.4732C31.5557 29.4634 31.5493 29.4544 31.5466 29.4437L31.0513 28.1349C31.0432 28.1135 31.0395 28.0965 31.0395 28.0849C31.0395 28.0724 31.0432 28.0626 31.0513 28.0555C31.0594 28.0483 31.073 28.0439 31.0911 28.0412C31.1092 28.0385 31.1345 28.0376 31.1652 28.0376C31.1959 28.0376 31.2194 28.0385 31.2375 28.0403C31.2547 28.0412 31.2691 28.0448 31.2791 28.0492C31.289 28.0528 31.2963 28.059 31.3008 28.0662C31.3053 28.0742 31.3107 28.084 31.3152 28.0974L31.7112 29.1966H31.7157L32.0971 28.092C32.1035 28.0724 32.1107 28.0599 32.1197 28.0546C32.1288 28.0492 32.1414 28.0448 32.1586 28.0421C32.1767 28.0394 32.202 28.0385 32.2345 28.0385C32.2634 28.0385 32.2869 28.0394 32.305 28.0421C32.3231 28.0448 32.3376 28.0492 32.3457 28.0564C32.3547 28.0635 32.3583 28.0733 32.3583 28.0858C32.3583 28.0974 32.3547 28.1135 32.3493 28.1313L31.8549 29.4928ZM33.5895 29.4562C33.5895 29.4687 33.585 29.4776 33.5777 29.4839C33.5696 29.4901 33.5587 29.4937 33.5434 29.4973C33.5289 29.5008 33.5081 29.5017 33.4801 29.5017C33.4539 29.5017 33.4322 29.4999 33.4168 29.4973C33.4015 29.4946 33.3897 29.4901 33.3816 29.4839C33.3743 29.4776 33.3707 29.4687 33.3707 29.4562V29.3197C33.3102 29.3831 33.2424 29.433 33.1683 29.4687C33.0932 29.5035 33.0146 29.5214 32.9314 29.5214C32.8582 29.5214 32.7913 29.5124 32.7326 29.4937C32.6738 29.475 32.6232 29.4473 32.5816 29.4116C32.54 29.3759 32.5075 29.3322 32.484 29.2813C32.4605 29.2296 32.4487 29.1707 32.4487 29.1047C32.4487 29.0271 32.465 28.9602 32.4966 28.9039C32.5283 28.8468 32.5744 28.7996 32.634 28.7621C32.6928 28.7246 32.766 28.6961 32.8528 28.6773C32.9387 28.6586 33.0363 28.6488 33.1438 28.6488H33.3355V28.5417C33.3355 28.4891 33.3291 28.4427 33.3183 28.4016C33.3074 28.3615 33.2894 28.3276 33.2641 28.3008C33.2387 28.2741 33.2062 28.2535 33.1664 28.2401C33.1267 28.2259 33.077 28.2196 33.0182 28.2196C32.9558 28.2196 32.8989 28.2268 32.8501 28.2419C32.8004 28.2571 32.757 28.2732 32.719 28.291C32.682 28.3088 32.6503 28.3258 32.625 28.3401C32.5997 28.3552 32.5816 28.3624 32.569 28.3624C32.5608 28.3624 32.5536 28.3606 32.5473 28.3561C32.5409 28.3526 32.5355 28.3463 32.531 28.3383C32.5265 28.3303 32.5229 28.3204 32.5211 28.308C32.5192 28.2946 32.5183 28.2812 32.5183 28.266C32.5183 28.241 32.5201 28.2205 32.5238 28.2062C32.5274 28.192 32.5364 28.1777 32.55 28.1643C32.5635 28.1518 32.5879 28.1358 32.6214 28.1179C32.6548 28.1001 32.6946 28.084 32.7389 28.0688C32.7823 28.0546 32.8311 28.0421 32.8835 28.0314C32.9359 28.0216 32.9893 28.0171 33.0417 28.0171C33.1411 28.0171 33.2261 28.0278 33.2957 28.0501C33.3653 28.0724 33.4222 28.1054 33.4647 28.1491C33.5081 28.192 33.5388 28.2455 33.5587 28.3097C33.5777 28.374 33.5877 28.4489 33.5877 28.5337V29.4562H33.5895ZM33.3373 28.829H33.1194C33.0498 28.829 32.9893 28.8344 32.9377 28.8468C32.8862 28.8576 32.8438 28.8754 32.8094 28.8986C32.776 28.9209 32.7506 28.9486 32.7344 28.9807C32.7181 29.0128 32.7109 29.0503 32.7109 29.0913C32.7109 29.1627 32.7335 29.2189 32.7796 29.2608C32.8257 29.3028 32.8889 29.3242 32.9712 29.3242C33.0372 29.3242 33.0996 29.3072 33.1565 29.2733C33.2134 29.2403 33.2731 29.1886 33.3355 29.1199V28.829H33.3373ZM34.6868 29.3527C34.6868 29.3822 34.685 29.4054 34.6805 29.4232C34.6769 29.4402 34.6705 29.4535 34.6615 29.4607C34.6534 29.4696 34.6416 29.4767 34.6244 29.4839C34.6082 29.491 34.5892 29.4964 34.5684 29.5017C34.5467 29.5062 34.525 29.5098 34.5015 29.5124C34.478 29.5151 34.4545 29.5169 34.431 29.5169C34.3596 29.5169 34.2972 29.5071 34.2466 29.4883C34.1951 29.4696 34.1535 29.4411 34.1201 29.4027C34.0875 29.3652 34.064 29.317 34.0487 29.2582C34.0342 29.2002 34.027 29.1315 34.027 29.0529V28.2544H33.8317C33.8163 28.2544 33.8037 28.2455 33.7937 28.2303C33.7847 28.2143 33.7802 28.1875 33.7802 28.1509C33.7802 28.1313 33.7811 28.1152 33.7838 28.1027C33.7865 28.0894 33.7901 28.0787 33.7937 28.0697C33.7974 28.0608 33.8037 28.0555 33.81 28.0519C33.8173 28.0483 33.8245 28.0465 33.8326 28.0465H34.0261V27.7209C34.0261 27.7137 34.027 27.7066 34.0315 27.7013C34.0351 27.695 34.0423 27.6897 34.0523 27.6852C34.0613 27.6807 34.0749 27.6772 34.092 27.6754C34.1083 27.6736 34.1282 27.6727 34.1544 27.6727C34.1806 27.6727 34.2005 27.6736 34.2177 27.6754C34.2349 27.6772 34.2466 27.6807 34.2565 27.6852C34.2656 27.6897 34.2728 27.695 34.2764 27.7013C34.281 27.7066 34.2828 27.7137 34.2828 27.7209V28.0465H34.6362C34.6443 28.0465 34.6516 28.0483 34.6579 28.0519C34.6642 28.0555 34.6696 28.0617 34.6741 28.0697C34.6787 28.0787 34.6823 28.0894 34.6841 28.1027C34.6859 28.1152 34.6868 28.1313 34.6868 28.1509C34.6868 28.1884 34.6823 28.2143 34.6733 28.2303C34.6642 28.2464 34.6516 28.2544 34.6362 28.2544H34.2828V29.0164C34.2828 29.11 34.2972 29.1814 34.3252 29.2296C34.3533 29.2778 34.4039 29.3019 34.4762 29.3019C34.4988 29.3019 34.5205 29.3001 34.5386 29.2947C34.5566 29.2903 34.5738 29.2849 34.5874 29.2805C34.6018 29.2751 34.6136 29.2706 34.6244 29.2662C34.6344 29.2617 34.6434 29.259 34.6516 29.259C34.657 29.259 34.6615 29.2599 34.666 29.2626C34.6705 29.2653 34.6742 29.2698 34.676 29.2769C34.6787 29.284 34.6805 29.2938 34.6832 29.3054C34.685 29.3188 34.6868 29.334 34.6868 29.3527ZM36.9656 28.7532C36.9656 28.8647 36.9511 28.9673 36.9213 29.061C36.8914 29.1547 36.8471 29.2358 36.7884 29.3037C36.7296 29.3715 36.6555 29.425 36.5669 29.4625C36.4774 29.5008 36.3744 29.5196 36.2578 29.5196C36.1439 29.5196 36.0445 29.5026 35.9595 29.4696C35.8745 29.4366 35.804 29.3875 35.748 29.3233C35.6919 29.259 35.6495 29.1814 35.6215 29.0904C35.5934 28.9985 35.5799 28.8959 35.5799 28.7799C35.5799 28.6684 35.5952 28.5658 35.6232 28.4721C35.6531 28.3775 35.6974 28.2972 35.7561 28.2294C35.8149 28.1616 35.8881 28.109 35.9767 28.0706C36.0653 28.0332 36.1683 28.0144 36.2858 28.0144C36.3997 28.0144 36.4991 28.0314 36.5841 28.0653C36.6691 28.0983 36.7396 28.1474 36.7956 28.2107C36.8517 28.2749 36.8941 28.3526 36.9231 28.4436C36.9511 28.5355 36.9656 28.639 36.9656 28.7532ZM36.6998 28.7692C36.6998 28.6952 36.6926 28.6247 36.679 28.5596C36.6655 28.4935 36.642 28.4364 36.6094 28.3865C36.5778 28.3365 36.5344 28.2972 36.4793 28.2687C36.4259 28.2393 36.3563 28.225 36.275 28.225C36.1999 28.225 36.1349 28.2375 36.0806 28.2642C36.0264 28.291 35.9821 28.3285 35.9469 28.3767C35.9116 28.4248 35.8854 28.4819 35.8691 28.548C35.8519 28.614 35.8438 28.6862 35.8438 28.7639C35.8438 28.8388 35.8501 28.9102 35.8646 28.9753C35.8782 29.0413 35.9017 29.0993 35.9342 29.1484C35.9667 29.1975 36.0101 29.2367 36.0644 29.2653C36.1186 29.2947 36.1873 29.309 36.2686 29.309C36.3428 29.309 36.4069 29.2965 36.4612 29.2697C36.5163 29.243 36.5606 29.2064 36.5959 29.1582C36.6311 29.1109 36.6564 29.0529 36.6736 28.9878C36.6917 28.9209 36.6998 28.8486 36.6998 28.7692Z" fill="#1D1D1B"/>
<path d="M39.3394 29.4546C39.3394 29.4626 39.3376 29.4697 39.3331 29.4751C39.3286 29.4804 39.3223 29.4858 39.3132 29.4894C39.3042 29.4929 39.2915 29.4965 39.2744 29.4983C39.2581 29.5001 39.2373 29.501 39.2129 29.501C39.1867 29.501 39.1659 29.5001 39.1496 29.4983C39.1333 29.4965 39.1207 29.4929 39.1098 29.4894C39.0999 29.4849 39.0936 29.4795 39.0891 29.4751C39.0845 29.4697 39.0827 29.4626 39.0827 29.4546V28.6221C39.0827 28.5641 39.0773 28.5106 39.0674 28.4633C39.0565 28.4151 39.0412 28.375 39.0176 28.3402C38.9951 28.3054 38.9661 28.2795 38.9318 28.2617C38.8974 28.2438 38.8559 28.234 38.8089 28.234C38.7501 28.234 38.6913 28.2563 38.6335 28.3009C38.5747 28.3455 38.5097 28.4107 38.4391 28.4972V29.4546C38.4391 29.4626 38.4373 29.4697 38.4328 29.4751C38.4292 29.4804 38.422 29.4858 38.412 29.4894C38.4021 29.4929 38.3894 29.4965 38.3723 29.4983C38.356 29.5001 38.3352 29.501 38.3108 29.501C38.2864 29.501 38.2665 29.5001 38.2493 29.4983C38.2322 29.4965 38.2186 29.4929 38.2096 29.4894C38.1996 29.4849 38.1924 29.4795 38.1888 29.4751C38.1851 29.4697 38.1833 29.4626 38.1833 29.4546V28.6221C38.1833 28.5641 38.1779 28.5106 38.1662 28.4633C38.1544 28.4151 38.1382 28.375 38.1156 28.3402C38.093 28.3054 38.064 28.2795 38.0306 28.2617C37.9962 28.2438 37.9556 28.234 37.9086 28.234C37.8498 28.234 37.7911 28.2563 37.7314 28.3009C37.6717 28.3455 37.6076 28.4107 37.5371 28.4972V29.4546C37.5371 29.4626 37.5352 29.4697 37.5307 29.4751C37.5271 29.4804 37.5208 29.4858 37.5108 29.4894C37.5018 29.4929 37.4891 29.4965 37.472 29.4983C37.4557 29.5001 37.4349 29.501 37.4087 29.501C37.3834 29.501 37.3626 29.5001 37.3463 29.4983C37.3292 29.4965 37.3165 29.4929 37.3066 29.4894C37.2966 29.4849 37.2894 29.4795 37.2867 29.4751C37.2831 29.4697 37.2812 29.4626 37.2812 29.4546V28.085C37.2812 28.0761 37.2831 28.0699 37.2858 28.0636C37.2894 28.0583 37.2948 28.0538 37.3048 28.0484C37.3138 28.044 37.3255 28.0404 37.34 28.0395C37.3545 28.0377 37.3735 28.0368 37.397 28.0368C37.4196 28.0368 37.4385 28.0377 37.453 28.0395C37.4684 28.0404 37.4801 28.044 37.4882 28.0484C37.4955 28.0529 37.5027 28.0583 37.5063 28.0636C37.509 28.069 37.5117 28.0761 37.5117 28.085V28.2661C37.5895 28.1796 37.6663 28.1163 37.7395 28.0761C37.8127 28.036 37.8878 28.0154 37.9619 28.0154C38.0197 28.0154 38.0713 28.0226 38.1174 28.0351C38.1635 28.0484 38.2032 28.0672 38.2385 28.0913C38.2737 28.1154 38.3036 28.1439 38.328 28.1769C38.3533 28.2099 38.3732 28.2465 38.3903 28.2876C38.4364 28.2376 38.4798 28.1957 38.5214 28.1609C38.563 28.1261 38.6028 28.0984 38.6416 28.077C38.6805 28.0556 38.7175 28.0404 38.7537 28.0306C38.7908 28.0208 38.8269 28.0163 38.8631 28.0163C38.9526 28.0163 39.0276 28.0315 39.0882 28.0627C39.1487 28.0939 39.1975 28.135 39.2355 28.1867C39.2735 28.2385 39.2988 28.2992 39.3159 28.3687C39.3313 28.4383 39.3394 28.5115 39.3394 28.5891V29.4546ZM39.9993 29.4546C39.9993 29.4626 39.9975 29.4697 39.993 29.4751C39.9884 29.4804 39.9821 29.4858 39.9731 29.4894C39.964 29.4929 39.9505 29.4965 39.9342 29.4983C39.9179 29.5001 39.8972 29.501 39.8709 29.501C39.8456 29.501 39.8257 29.5001 39.8086 29.4983C39.7914 29.4965 39.7787 29.4929 39.7697 29.4894C39.7598 29.4849 39.7525 29.4795 39.7489 29.4751C39.7453 29.4697 39.7435 29.4626 39.7435 29.4546V28.085C39.7435 28.0779 39.7444 28.0707 39.7489 28.0654C39.7525 28.0591 39.7598 28.0538 39.7697 28.0502C39.7787 28.0467 39.7923 28.0431 39.8086 28.0413C39.8248 28.0395 39.8456 28.0377 39.8709 28.0377C39.8972 28.0377 39.9179 28.0386 39.9342 28.0413C39.9514 28.0431 39.964 28.0467 39.9731 28.0502C39.9821 28.0547 39.9884 28.0591 39.993 28.0654C39.9975 28.0707 39.9993 28.0779 39.9993 28.085V29.4546ZM40.0273 27.6229C40.0273 27.6817 40.0156 27.7219 39.993 27.7433C39.9704 27.7647 39.9288 27.7754 39.8682 27.7754C39.8086 27.7754 39.767 27.7656 39.7453 27.7442C39.7236 27.7228 39.7119 27.6835 39.7119 27.6255C39.7119 27.5667 39.7227 27.5265 39.7462 27.5051C39.7688 27.4837 39.8104 27.473 39.8718 27.473C39.9324 27.473 39.9731 27.4837 39.9948 27.5042C40.0165 27.5256 40.0273 27.5649 40.0273 27.6229ZM40.6628 29.4546C40.6628 29.4626 40.6609 29.4697 40.6564 29.4751C40.6519 29.4804 40.6465 29.4858 40.6365 29.4894C40.6275 29.4929 40.6148 29.4965 40.5977 29.4983C40.5814 29.5001 40.5606 29.501 40.5344 29.501C40.5091 29.501 40.4883 29.5001 40.472 29.4983C40.4549 29.4965 40.4422 29.4929 40.4323 29.4894C40.4223 29.4849 40.4151 29.4795 40.4115 29.4751C40.4079 29.4697 40.406 29.4626 40.406 29.4546V27.4221C40.406 27.4141 40.4079 27.407 40.4115 27.4007C40.4151 27.3945 40.4214 27.3891 40.4323 27.3855C40.4413 27.382 40.4549 27.3784 40.472 27.3766C40.4883 27.3748 40.5091 27.373 40.5344 27.373C40.5597 27.373 40.5814 27.3739 40.5977 27.3766C40.6148 27.3784 40.6275 27.382 40.6365 27.3855C40.6465 27.39 40.6528 27.3945 40.6564 27.4007C40.6609 27.4061 40.6628 27.4132 40.6628 27.4221V29.4546ZM41.3262 29.4546C41.3262 29.4626 41.3244 29.4697 41.3199 29.4751C41.3154 29.4804 41.31 29.4858 41.3 29.4894C41.291 29.4929 41.2783 29.4965 41.2611 29.4983C41.2449 29.5001 41.2232 29.501 41.1979 29.501C41.1726 29.501 41.1518 29.5001 41.1364 29.4983C41.1192 29.4965 41.1066 29.4929 41.0966 29.4894C41.0867 29.4849 41.0795 29.4795 41.0758 29.4751C41.0722 29.4697 41.0704 29.4626 41.0704 29.4546V27.4221C41.0704 27.4141 41.0722 27.407 41.0758 27.4007C41.0795 27.3945 41.0867 27.3891 41.0966 27.3855C41.1057 27.382 41.1192 27.3784 41.1364 27.3766C41.1527 27.3748 41.1735 27.373 41.1979 27.373C41.2241 27.373 41.2449 27.3739 41.2611 27.3766C41.2783 27.3784 41.291 27.382 41.3 27.3855C41.31 27.39 41.3163 27.3945 41.3199 27.4007C41.3244 27.4061 41.3262 27.4132 41.3262 27.4221V29.4546ZM42.7797 29.4563C42.7797 29.4688 42.7752 29.4778 42.768 29.484C42.7589 29.4903 42.7481 29.4938 42.7336 29.4974C42.7191 29.501 42.6984 29.5019 42.6703 29.5019C42.6441 29.5019 42.6224 29.5001 42.6071 29.4974C42.5908 29.4947 42.5799 29.4903 42.5718 29.484C42.5646 29.4778 42.561 29.4688 42.561 29.4563V29.3198C42.5004 29.3832 42.4335 29.4332 42.3585 29.4688C42.2835 29.5036 42.2048 29.5215 42.1217 29.5215C42.0484 29.5215 41.9825 29.5126 41.9228 29.4938C41.864 29.4751 41.8134 29.4474 41.7718 29.4117C41.7303 29.376 41.6977 29.3323 41.6742 29.2815C41.6516 29.2297 41.639 29.1708 41.639 29.1048C41.639 29.0272 41.6552 28.9603 41.6869 28.9041C41.7185 28.847 41.7637 28.7997 41.8243 28.7622C41.8839 28.7247 41.9562 28.6962 42.043 28.6775C42.1298 28.6587 42.2265 28.6489 42.335 28.6489H42.5266V28.5418C42.5266 28.4892 42.5212 28.4428 42.5094 28.4018C42.4986 28.3616 42.4805 28.3277 42.4552 28.3009C42.4299 28.2742 42.3973 28.2537 42.3576 28.2403C42.3178 28.226 42.2681 28.2198 42.2093 28.2198C42.147 28.2198 42.09 28.2269 42.0412 28.2421C41.9906 28.2572 41.9472 28.2733 41.9101 28.2911C41.8731 28.309 41.8405 28.3259 41.8161 28.3402C41.7908 28.3554 41.7727 28.3625 41.7601 28.3625C41.752 28.3625 41.7447 28.3607 41.7384 28.3563C41.7321 28.3527 41.7267 28.3464 41.7221 28.3384C41.7167 28.3304 41.714 28.3206 41.7122 28.3081C41.7104 28.2947 41.7095 28.2813 41.7095 28.2661C41.7095 28.2412 41.7113 28.2206 41.7149 28.2064C41.7185 28.1921 41.7276 28.1778 41.7411 28.1644C41.7547 28.1519 41.7791 28.1359 41.8125 28.118C41.846 28.1002 41.8857 28.0841 41.93 28.069C41.9734 28.0547 42.0222 28.0422 42.0747 28.0315C42.1262 28.0217 42.1795 28.0172 42.2328 28.0172C42.3323 28.0172 42.4172 28.0279 42.4868 28.0502C42.5573 28.0725 42.6134 28.1055 42.6559 28.1493C42.6993 28.1921 42.73 28.2456 42.7499 28.3099C42.7698 28.3741 42.7797 28.449 42.7797 28.5338V29.4563ZM42.5275 28.8291H42.3106C42.241 28.8291 42.1804 28.8345 42.1289 28.847C42.0783 28.8577 42.0349 28.8755 42.0005 28.8987C41.9671 28.921 41.9427 28.9487 41.9255 28.9808C41.9092 29.0129 41.902 29.0504 41.902 29.0914C41.902 29.1628 41.9246 29.219 41.9707 29.261C42.0168 29.3029 42.0801 29.3243 42.1623 29.3243C42.2283 29.3243 42.2907 29.3074 42.3476 29.2734C42.4046 29.2404 42.4642 29.1887 42.5266 29.12V28.8291H42.5275ZM43.9982 28.1734C43.9982 28.1957 43.9973 28.2144 43.9964 28.2296C43.9955 28.2447 43.9927 28.2563 43.99 28.2653C43.9873 28.2742 43.9828 28.2804 43.9783 28.2849C43.9738 28.2893 43.9674 28.292 43.9593 28.292C43.9512 28.292 43.9412 28.2902 43.9286 28.2849C43.9168 28.2804 43.9033 28.2751 43.8888 28.2715C43.8743 28.267 43.8572 28.2626 43.8391 28.2581C43.821 28.2537 43.8002 28.2519 43.7785 28.2519C43.7523 28.2519 43.7279 28.2572 43.7026 28.267C43.6782 28.2777 43.652 28.2938 43.6249 28.3179C43.5977 28.3411 43.5688 28.3723 43.539 28.4107C43.5092 28.449 43.4766 28.4972 43.4405 28.5525V29.4537C43.4405 29.4617 43.4386 29.4688 43.4341 29.4742C43.4296 29.4795 43.4233 29.4849 43.4142 29.4885C43.4052 29.492 43.3925 29.4956 43.3754 29.4974C43.3591 29.4992 43.3383 29.5001 43.3121 29.5001C43.2868 29.5001 43.2669 29.4992 43.2497 29.4974C43.2326 29.4956 43.2199 29.492 43.21 29.4885C43.2 29.484 43.1928 29.4787 43.1892 29.4742C43.1856 29.4688 43.1837 29.4617 43.1837 29.4537V28.0841C43.1837 28.0752 43.1847 28.069 43.1883 28.0627C43.191 28.0574 43.1973 28.0529 43.2063 28.0476C43.2154 28.0431 43.2271 28.0395 43.2425 28.0386C43.257 28.0368 43.2759 28.036 43.3004 28.036C43.323 28.036 43.3419 28.0368 43.3564 28.0386C43.3718 28.0395 43.3835 28.0431 43.3916 28.0476C43.3998 28.052 43.4061 28.0574 43.4097 28.0627C43.4124 28.0681 43.4152 28.0752 43.4152 28.0841V28.2831C43.4531 28.2278 43.4884 28.1832 43.5218 28.1484C43.5553 28.1145 43.5869 28.0868 43.6167 28.0672C43.6465 28.0476 43.6764 28.0342 43.7053 28.0261C43.7351 28.0181 43.7641 28.0145 43.7939 28.0145C43.8074 28.0145 43.8228 28.0154 43.8391 28.0163C43.8563 28.0181 43.8743 28.0208 43.8924 28.0253C43.9105 28.0297 43.9277 28.0342 43.9421 28.0395C43.9566 28.0449 43.9674 28.0493 43.9738 28.0547C43.9801 28.06 43.9837 28.0645 43.9855 28.069C43.9873 28.0734 43.99 28.0797 43.9918 28.0859C43.9927 28.0931 43.9946 28.1038 43.9946 28.1171C43.9982 28.1323 43.9982 28.1502 43.9982 28.1734ZM44.4827 29.4546C44.4827 29.4626 44.4809 29.4697 44.4763 29.4751C44.4718 29.4804 44.4655 29.4858 44.4565 29.4894C44.4465 29.4929 44.4348 29.4965 44.4176 29.4983C44.4013 29.5001 44.3796 29.501 44.3543 29.501C44.329 29.501 44.3082 29.5001 44.2928 29.4983C44.2757 29.4965 44.263 29.4929 44.2531 29.4894C44.2431 29.4849 44.2368 29.4795 44.2323 29.4751C44.2287 29.4697 44.2269 29.4626 44.2269 29.4546V28.085C44.2269 28.0779 44.2287 28.0707 44.2323 28.0654C44.2359 28.0591 44.2431 28.0538 44.2531 28.0502C44.263 28.0467 44.2757 28.0431 44.2928 28.0413C44.3091 28.0395 44.3299 28.0377 44.3543 28.0377C44.3805 28.0377 44.4013 28.0386 44.4176 28.0413C44.4348 28.0431 44.4465 28.0467 44.4565 28.0502C44.4655 28.0547 44.4727 28.0591 44.4763 28.0654C44.48 28.0707 44.4827 28.0779 44.4827 28.085V29.4546ZM44.5107 27.6229C44.5107 27.6817 44.4989 27.7219 44.4763 27.7433C44.4537 27.7647 44.4122 27.7754 44.3507 27.7754C44.2901 27.7754 44.2495 27.7656 44.2278 27.7442C44.2052 27.7228 44.1943 27.6835 44.1943 27.6255C44.1943 27.5667 44.2061 27.5265 44.2287 27.5051C44.2513 27.4837 44.2928 27.473 44.3534 27.473C44.4131 27.473 44.4546 27.4837 44.4763 27.5042C44.4998 27.5256 44.5107 27.5649 44.5107 27.6229Z" fill="#1D1D1B"/>
</svg>
