<svg width="101" height="25" viewBox="0 0 101 25" fill="none" xmlns="http://www.w3.org/2000/svg">
<path d="M83.6211 17.4011H86.9854V6.16211H83.6211V17.4011Z" fill="#04165D"/>
<path d="M74.9436 14.6717C73.5064 14.6717 72.2368 13.6756 72.2368 11.7688C72.2368 9.96071 73.4655 8.87046 74.9527 8.87046C75.0797 8.87046 75.2066 8.87943 75.3336 8.89738L77.6731 9.06787L77.6595 11.5355C77.6641 11.6118 77.6686 11.6925 77.6686 11.7688C77.6686 11.863 77.6641 11.9528 77.6595 12.0425C77.5371 13.5545 76.4036 14.6717 74.9436 14.6717ZM74.123 17.754C75.7824 17.754 77.12 17.1034 77.8091 15.9638V17.3995H81.0147V6.16054H78.9109C77.4101 6.09772 76.0409 5.92723 74.5628 5.82404L74.4948 5.81955C74.3633 5.81058 74.2318 5.80609 74.1003 5.80609C71.1124 5.80609 68.8952 8.50255 68.8952 11.7688C68.8952 15.062 71.0761 17.754 74.123 17.754ZM65.4176 17.3995H67.9295V14.6447H66.1431C65.4358 14.6447 64.8645 14.2679 64.8645 13.1731V9.00505H67.934V6.16054H64.8645V2.2168L61.4957 2.23474V6.16054H59.3148L60.4075 9.00505H61.4957V13.0206C61.4912 16.906 63.7446 17.3995 65.4176 17.3995ZM51.2216 17.3995H47.8755V6.16054H49.9793C51.1989 6.11118 52.3823 5.9048 53.5974 5.81955C57.0252 5.59522 59.197 8.60126 59.197 11.7733C59.197 13.6442 59.2015 15.5107 59.2015 17.3816H55.8554V11.7733C55.9234 9.65113 54.5723 8.63715 52.7586 8.90186L51.2125 9.07235C51.2216 11.8451 51.2216 14.6223 51.2216 17.3995ZM42.1399 6.16054H45.4861V17.3995H43.3823C42.1626 17.4489 40.9792 17.6553 39.7641 17.7405C36.3364 17.9648 34.1646 14.9588 34.1646 11.7868C34.1646 9.91584 34.1601 8.0494 34.1601 6.17848H37.5062V11.7868C37.4382 13.9089 38.7893 14.9229 40.6029 14.6582L42.149 14.4877C42.1399 11.715 42.1399 8.93776 42.1399 6.16054ZM26.8829 14.6717C25.2915 14.6717 24.1671 13.4917 24.1671 11.7823C24.1671 10.0818 25.2915 8.89289 26.8829 8.89289C28.4744 8.89289 29.5988 10.0863 29.5988 11.7823C29.5988 13.4917 28.4698 14.6717 26.8829 14.6717ZM26.8467 17.754C30.4512 17.754 32.9404 15.0844 32.9404 11.7823C32.9404 8.50255 30.4512 5.81058 26.8557 5.81058C23.2829 5.81058 20.8164 8.51153 20.8164 11.7823C20.8209 15.071 23.2965 17.754 26.8467 17.754Z" fill="#04165D"/>
<path d="M0 17.4009H3.57281L5.52245 7.83093L8.91843 15.0454H10.8182L14.255 7.86234L16.2545 17.4054H19.8092L16.191 2.22714C15.3885 2.22714 14.5814 2.22714 13.7789 2.22714C13.0852 2.22714 12.7724 2.90911 12.7724 2.90911L9.87058 9.23524V9.24422C8.92297 7.13102 7.97536 5.02231 7.02774 2.90911C7.02321 2.90014 6.71943 2.22266 6.03026 2.22266H3.57281L0 17.4009Z" fill="#04165D"/>
<path d="M93.0199 17.4004H89.6738V6.16139H91.7776C92.9973 6.11204 94.1807 5.90566 95.3958 5.82041C98.8235 5.59608 100.995 8.60211 100.995 11.7742C100.995 13.6451 101 15.5115 101 17.3824H97.6537V11.7742C97.7217 9.65198 96.3706 8.63801 94.557 8.90272L93.0109 9.07321C93.0245 11.8459 93.0199 14.6232 93.0199 17.4004Z" fill="#04165D"/>
<path fill-rule="evenodd" clip-rule="evenodd" d="M85.1443 0.0234375C85.0446 0.0234375 84.9403 0.108683 84.8904 0.274688C84.7272 0.840003 84.4098 1.31558 83.9745 1.65657C83.7388 1.80014 83.4758 1.90333 83.1811 1.97063C82.841 2.06485 82.8456 2.36994 83.1811 2.46416C83.6073 2.5853 83.9836 2.79168 84.2919 3.06985C84.5639 3.37046 84.768 3.73836 84.8904 4.15562C84.9403 4.32611 85.04 4.40687 85.1443 4.40687C85.244 4.40687 85.3483 4.32162 85.3982 4.15562C85.5206 3.73836 85.7247 3.37046 85.9967 3.06985C86.3005 2.79617 86.6768 2.5853 87.1075 2.46416C87.443 2.36994 87.4476 2.06485 87.1075 1.97063C86.8128 1.90333 86.5498 1.79565 86.3141 1.65657C85.8788 1.32007 85.5614 0.844489 85.3982 0.274688C85.3483 0.108683 85.2486 0.0234375 85.1443 0.0234375Z" fill="#FDC600"/>
<path d="M29.1679 21.293H29.653C29.7437 21.293 29.7891 21.3378 29.7891 21.4321V24.797C29.7891 24.8912 29.7437 24.9361 29.653 24.9361H29.1679C29.0727 24.9361 29.0273 24.8912 29.0273 24.797V21.4321C29.0273 21.3378 29.0727 21.293 29.1679 21.293Z" fill="#04165D"/>
<path d="M31.7148 21.434C31.7148 21.3398 31.7602 21.2949 31.8554 21.2949H34.6302C34.7254 21.2949 34.7708 21.3398 34.7708 21.434V21.8692C34.7708 21.9589 34.7254 22.0038 34.6302 22.0038H33.6237V24.8035C33.6237 24.8977 33.5783 24.9425 33.4831 24.9425H33.0025C32.9073 24.9425 32.862 24.8977 32.862 24.8035V22.0038H31.8554C31.7602 22.0038 31.7148 21.9589 31.7148 21.8692V21.434Z" fill="#04165D"/>
<path d="M39.1382 23.063L39.1745 23.0405C38.9432 22.7668 38.8253 22.4932 38.8253 22.215C38.8253 21.9189 38.9206 21.6811 39.111 21.5016C39.3014 21.3222 39.5553 21.2324 39.8682 21.2324C40.1719 21.2324 40.4213 21.3132 40.6072 21.4747C40.7931 21.6362 40.8883 21.8471 40.8883 22.1118C40.8883 22.5201 40.6934 22.8341 40.2989 23.0495L40.1629 23.1213L40.5891 23.5655C40.6117 23.4982 40.6253 23.4443 40.6299 23.4084C40.6979 23.1482 40.7976 22.9643 40.9291 22.8521C41.0606 22.7399 41.2556 22.6861 41.5049 22.6861H41.641C41.7362 22.6861 41.7815 22.731 41.7815 22.8252V23.1706C41.7815 23.2649 41.7362 23.3097 41.641 23.3097H41.5276C41.3599 23.3097 41.251 23.4039 41.2057 23.5924L41.183 23.6956C41.1604 23.7988 41.1196 23.9199 41.0697 24.05L41.7634 24.7634C41.7951 24.7993 41.8087 24.8307 41.8087 24.8576C41.8087 24.8666 41.8042 24.88 41.7951 24.9025C41.7861 24.9249 41.7543 24.9384 41.6954 24.9384H41.115C41.047 24.9384 40.9881 24.9159 40.9427 24.8666L40.6979 24.6198C40.4394 24.8666 40.113 24.9922 39.714 24.9922C39.3422 24.9922 39.052 24.907 38.8435 24.741C38.6349 24.5705 38.5352 24.3372 38.5352 24.0321C38.5352 23.6103 38.7347 23.2873 39.1382 23.063ZM39.2379 23.9334C39.2379 24.0769 39.2878 24.1891 39.383 24.2699C39.4782 24.3506 39.6188 24.3865 39.7956 24.3865C39.9815 24.3865 40.1402 24.3147 40.2717 24.1756L39.5689 23.4533L39.5236 23.4802C39.3331 23.5834 39.2379 23.736 39.2379 23.9334ZM39.7004 22.6502L39.7684 22.7175L39.9044 22.6457C40.1493 22.5111 40.2717 22.3496 40.2717 22.1656C40.2717 22.058 40.2354 21.9727 40.1629 21.9054C40.0903 21.8381 39.9951 21.8067 39.8772 21.8067C39.7593 21.8067 39.6641 21.8426 39.5916 21.9189C39.519 21.9951 39.4828 22.0939 39.4828 22.2195C39.4873 22.3541 39.5598 22.5021 39.7004 22.6502Z" fill="#04165D"/>
<path d="M45.6562 21.434C45.6562 21.3398 45.7016 21.2949 45.7968 21.2949H47.0165C47.5741 21.2949 48.0185 21.4609 48.3585 21.7974C48.6986 22.1294 48.8663 22.5691 48.8663 23.112C48.8663 23.6639 48.6895 24.1035 48.3404 24.44C47.9913 24.7765 47.5379 24.9381 46.9621 24.9381H45.7968C45.7016 24.9381 45.6562 24.8932 45.6562 24.799V21.434ZM46.418 21.9993V24.2292H46.9439C47.2794 24.2292 47.5469 24.126 47.751 23.9196C47.955 23.7132 48.0593 23.444 48.0593 23.1075C48.0593 22.7755 47.9595 22.5108 47.7555 22.3044C47.5515 22.098 47.284 21.9993 46.9485 21.9993H46.418Z" fill="#04165D"/>
<path d="M51.0038 21.293H53.23C53.3207 21.293 53.3661 21.3378 53.3661 21.4321V21.8673C53.3661 21.957 53.3207 22.0019 53.23 22.0019H51.625V22.7825H52.9625C53.0577 22.7825 53.1031 22.8274 53.1031 22.9216V23.3164C53.1031 23.4062 53.0577 23.451 52.9625 23.451H51.625V24.2362H53.2935C53.3887 24.2362 53.4341 24.2811 53.4341 24.3753V24.806C53.4341 24.9002 53.3887 24.9451 53.2935 24.9451H51.0038C50.9086 24.9451 50.8633 24.9002 50.8633 24.806V21.441C50.8633 21.3378 50.9132 21.293 51.0038 21.293Z" fill="#04165D"/>
<path d="M55.3021 23.8198L55.7374 23.7525C55.7464 23.748 55.76 23.748 55.7691 23.748C55.8281 23.748 55.8734 23.7884 55.9006 23.8647C55.9414 24.0128 56.0321 24.1294 56.1726 24.2147C56.3132 24.2999 56.481 24.3448 56.685 24.3448C56.8754 24.3448 57.0296 24.3044 57.1429 24.2236C57.2563 24.1429 57.3107 24.0352 57.3107 23.9051C57.3107 23.7121 57.1837 23.5865 56.9298 23.5327L56.1772 23.3622C55.8825 23.2949 55.6558 23.1693 55.4971 22.9898C55.3384 22.8103 55.2613 22.5905 55.2613 22.3303C55.2613 21.9983 55.3883 21.7336 55.6467 21.5317C55.9051 21.3298 56.2361 21.2266 56.6487 21.2266C56.9752 21.2266 57.2517 21.3028 57.4784 21.4509C57.7051 21.599 57.8638 21.7964 57.9545 22.0431C57.9636 22.0656 57.9636 22.0835 57.9636 22.1059C57.9636 22.1598 57.9273 22.2002 57.8593 22.2181L57.4422 22.3437C57.424 22.3527 57.4104 22.3527 57.3968 22.3527C57.3424 22.3527 57.3016 22.3168 57.2789 22.2495C57.2291 22.1373 57.1475 22.0476 57.0341 21.9803C56.9208 21.913 56.7847 21.8816 56.6306 21.8816C56.4583 21.8816 56.3177 21.922 56.2089 22.0027C56.1001 22.0835 56.0457 22.1867 56.0457 22.3168C56.0457 22.5008 56.1772 22.6264 56.4356 22.6892L57.1837 22.8687C57.4784 22.9405 57.7051 23.0661 57.8593 23.25C58.0135 23.4295 58.0905 23.6449 58.0905 23.8961C58.0905 24.2281 57.9591 24.4973 57.6961 24.6992C57.4331 24.9011 57.0885 24.9998 56.6623 24.9998C56.2588 24.9998 55.9278 24.9056 55.6648 24.7172C55.4019 24.5287 55.2432 24.2819 55.1842 23.9769C55.1797 23.9634 55.1797 23.9499 55.1797 23.9365C55.1797 23.8737 55.2205 23.8333 55.3021 23.8198Z" fill="#04165D"/>
<path d="M60.2128 21.293H60.698C60.7886 21.293 60.834 21.3378 60.834 21.4321V24.797C60.834 24.8912 60.7886 24.9361 60.698 24.9361H60.2128C60.1176 24.9361 60.0723 24.8912 60.0723 24.797V21.4321C60.0723 21.3378 60.1176 21.293 60.2128 21.293Z" fill="#04165D"/>
<path d="M63.3315 21.7509C63.667 21.4054 64.1068 21.2305 64.6554 21.2305C65.0453 21.2305 65.3854 21.3202 65.6801 21.5042C65.9703 21.6881 66.1743 21.9304 66.2831 22.231C66.2922 22.2534 66.2922 22.2714 66.2922 22.2893C66.2922 22.3431 66.2605 22.3835 66.1925 22.406L65.7527 22.5585C65.73 22.5675 65.7118 22.5675 65.6937 22.5675C65.6438 22.5675 65.603 22.5361 65.5758 22.4777C65.4988 22.3207 65.3809 22.1951 65.2222 22.0964C65.0635 22.0022 64.8821 21.9528 64.6872 21.9528C64.3743 21.9528 64.1204 22.056 63.9254 22.2669C63.7305 22.4777 63.6353 22.7559 63.6353 23.0969C63.6353 23.4469 63.735 23.725 63.9345 23.9359C64.134 24.1468 64.3924 24.2545 64.7098 24.2545C64.9683 24.2545 65.1768 24.1827 65.3446 24.0391C65.5078 23.8955 65.603 23.7026 65.6166 23.4648H64.7234C64.6282 23.4648 64.5829 23.4199 64.5829 23.3257V22.9758C64.5829 22.886 64.6282 22.8412 64.7234 22.8412H66.2514C66.3466 22.8412 66.3919 22.886 66.3919 22.9758V24.7884C66.3919 24.8826 66.3466 24.9274 66.2514 24.9274H65.9884C65.9068 24.9274 65.8569 24.8916 65.8343 24.8198L65.6937 24.4519C65.4534 24.8108 65.0726 24.9903 64.5466 24.9903C64.0343 24.9903 63.6217 24.8198 63.3043 24.4698C62.9869 24.1243 62.8282 23.6712 62.8282 23.1148C62.8237 22.5585 62.996 22.1009 63.3315 21.7509Z" fill="#04165D"/>
<path d="M68.6406 21.293H69.2844C69.3524 21.293 69.4113 21.3244 69.4521 21.3917L70.8668 23.792V21.4321C70.8668 21.3378 70.9121 21.293 71.0073 21.293H71.4925C71.5831 21.293 71.6285 21.3378 71.6285 21.4321V24.797C71.6285 24.8912 71.5831 24.9361 71.4925 24.9361H70.8486C70.7715 24.9361 70.7171 24.9047 70.6809 24.8419L69.2617 22.4371V24.797C69.2617 24.8912 69.2164 24.9361 69.1257 24.9361H68.6406C68.5453 24.9361 68.5 24.8912 68.5 24.797V21.4321C68.5 21.3378 68.5499 21.293 68.6406 21.293Z" fill="#04165D"/>
</svg>
